<?xml version="1.0" encoding="UTF-8"?>
<svg id="Camada_1" data-name="Camada 1" xmlns="http://www.w3.org/2000/svg" viewBox="0 0 1080 1080">
  <defs>
    <style>
      .cls-1 {
        fill: #0a00db;
      }

      .cls-2 {
        fill: none;
        opacity: 0;
      }
    </style>
  </defs>
  <g id="MALHA" class="cls-2">
    <path class="cls-1" d="m535,535H-545c0-360,0-720,0-1080H535V535Z"/>
  </g>
  <g>
    <g>
      <g>
        <path class="cls-1" d="m406.32,541.89l-47.5-74.59v74.59h-21.57v-111.05h24.59l44.15,71.42v-71.42h21.74v111.05h-21.41Z"/>
        <path class="cls-1" d="m490.12,545.73c-17.17,0-30.36-5.02-39.55-15.05-9.2-10.03-13.8-24.47-13.8-43.32,0-9.37,1.17-17.78,3.51-25.25,2.34-7.47,5.8-13.8,10.37-18.98,4.57-5.18,10.14-9.14,16.72-11.87,6.58-2.73,14.16-4.1,22.75-4.1s16.03,1.37,22.66,4.1c6.63,2.73,12.18,6.72,16.64,11.96,4.46,5.24,7.86,11.62,10.2,19.15,2.34,7.53,3.51,16.03,3.51,25.5,0,19.18-4.55,33.62-13.63,43.32-9.09,9.7-22.22,14.55-39.39,14.55Zm0-19.9c4.12,0,8.03-.75,11.71-2.26,3.68-1.5,6.88-3.79,9.62-6.86,2.73-3.07,4.88-7,6.44-11.79,1.56-4.79,2.34-10.48,2.34-17.06,0-13.15-2.57-23.13-7.69-29.94-5.13-6.8-12.6-10.2-22.41-10.2s-17.34,3.4-22.58,10.2c-5.24,6.8-7.86,16.78-7.86,29.94s2.65,22.77,7.94,28.85c5.29,6.08,12.79,9.11,22.5,9.11Z"/>
        <path class="cls-1" d="m578.92,541.89l-37.63-111.05h24.75l24.25,77.94,24.08-77.94h24.08l-37.63,111.05h-21.91Z"/>
        <path class="cls-1" d="m693.32,541.89l-7.02-22.91h-40.98l-7.86,22.91h-24.59l39.64-111.05h26.93l39.14,111.05h-25.26Zm-27.59-86.13h-.17l-14.22,44.15h28.26l-13.88-44.15Z"/>
        <path class="cls-1" d="m812.07,503.75c-1.23,6.36-3.18,12.1-5.85,17.23-2.67,5.13-6.05,9.53-10.12,13.21-4.07,3.68-8.78,6.52-14.13,8.53-5.35,2.01-11.26,3.01-17.73,3.01-7.25,0-14.02-1.23-20.32-3.68-6.3-2.45-11.74-6.13-16.31-11.04-4.57-4.91-8.17-10.95-10.79-18.15-2.62-7.19-3.93-15.58-3.93-25.17s1.2-17.81,3.6-25.34c2.4-7.53,5.83-13.88,10.29-19.07,4.46-5.18,9.89-9.17,16.31-11.96,6.41-2.79,13.57-4.18,21.49-4.18,6.91,0,13.18,1.03,18.82,3.09,5.63,2.06,10.48,4.91,14.55,8.53,4.07,3.62,7.3,7.89,9.7,12.79,2.4,4.91,3.87,10.15,4.43,15.72h-23.25c-1.56-6.36-4.57-11.29-9.03-14.8-4.46-3.51-9.48-5.27-15.05-5.27-9.7,0-16.84,3.49-21.41,10.45-4.57,6.97-6.86,16.53-6.86,28.68s2.26,21.99,6.77,28.85c4.51,6.86,11.29,10.29,20.32,10.29,6.91,0,12.46-1.87,16.64-5.6,4.18-3.73,7.05-9.12,8.61-16.14h23.25Z"/>
        <path class="cls-1" d="m888.5,541.89l-7.02-22.91h-40.98l-7.86,22.91h-24.58l39.64-111.05h26.93l39.14,111.05h-25.26Zm-27.6-86.13h-.17l-14.22,44.15h28.26l-13.88-44.15Z"/>
        <path class="cls-1" d="m920.95,541.89v-111.05h49c5.46,0,10.37.92,14.72,2.76,4.35,1.84,8.08,4.41,11.21,7.69,3.12,3.29,5.52,7.11,7.19,11.46,1.67,4.35,2.51,9.03,2.51,14.05s-.84,9.67-2.51,13.96c-1.67,4.29-4.07,7.97-7.19,11.04-3.12,3.07-6.86,5.46-11.21,7.19-4.35,1.73-9.26,2.59-14.72,2.59h-25.76v40.31h-23.25Zm45.32-59.21c6.69,0,11.51-1.53,14.47-4.6,2.95-3.07,4.43-7.05,4.43-11.96s-1.48-8.53-4.43-11.54c-2.95-3.01-7.78-4.52-14.47-4.52h-22.08v32.61h22.08Z"/>
      </g>
      <g>
        <path class="cls-1" d="m414.84,605.75c-2.28-.48-4.19-1.79-5.71-3.93-1.32-1.85-1.98-4.04-1.98-6.57,0-1.53.24-3.17.72-4.93,1.07-3.9,2.88-7.95,5.44-12.15,2.49-3.95,5.28-7.52,8.38-10.71,3.1-3.19,6.19-5.75,9.25-7.66,3.07-1.92,5.78-2.92,8.13-3.01h.24c.64,0,1.17.08,1.61.24.5.18.98.48,1.44.89.96.85,1.47,1.92,1.54,3.22v.38c0,.23-.01.43-.03.62-.02.25-.09.52-.21.82-.34.82-.86,1.69-1.56,2.62-.7.92-1.43,1.72-2.19,2.39-.76.67-1.36,1.01-1.8,1.01-.18,0-.38-.11-.6-.34-.22-.23-.33-.43-.33-.62,0-.16.46-.71,1.37-1.64.75-.73,1.33-1.4,1.73-2,.4-.6.71-1.27.94-2,.16-.41.24-.75.24-1.03,0-.45-.24-.68-.72-.68-.25,0-.56.06-.92.17-3.69,1.09-8.07,4.05-13.14,8.86-4.52,4.38-8.2,9.19-11.05,14.44-2.28,4.27-3.68,8.23-4.21,11.91-.05.5-.07,1.06-.07,1.68v.65c.05.84.12,1.46.24,1.85.16.59.5,1.02,1.03,1.28.52.26,1.28.39,2.26.39h.07c2.14,0,4.65-.94,7.53-2.81,2.49-1.57,5.12-3.89,7.9-6.94.34-.39.68-.76,1.03-1.13.57-.64.98-1.09,1.23-1.37.48-.52.93-.92,1.35-1.2.42-.27.76-.41,1.01-.41h.1c.14.02.23.08.27.15.05.08.07.23.07.46,0,.8-.57,2.04-1.71,3.73-.89,1.32-1.74,2.46-2.55,3.42-.81.96-1.89,2.1-3.23,3.42-1.39,1.41-2.56,2.49-3.51,3.23-.95.74-1.96,1.39-3.03,1.93-1.92.98-3.71,1.47-5.37,1.47-.41,0-.81-.03-1.2-.1Z"/>
        <path class="cls-1" d="m445.39,598.56c-.87-.48-1.44-1.23-1.71-2.26-.27-1.03-.38-2.04-.32-3.03.06-.99.13-1.68.22-2.07-.05.02-.67.64-1.88,1.85-1.21,1.21-2.95,2.61-5.23,4.21-.68.3-1.28.44-1.78.44-.66,0-1.16-.24-1.51-.72-.62-.84-.92-1.97-.92-3.39v-.27c.05-1.51.33-2.87.85-4.11.39-.96.98-2.07,1.78-3.34.8-1.27,1.69-2.48,2.67-3.64.59-.71,1.07-1.22,1.44-1.54.36-.32.67-.51.92-.58h.14c.39,0,.76.25,1.13.75.39.59.64,1.3.75,2.12.02.11.03.24.03.38,0,.39-.1.79-.31,1.2-.3.55-.9,1.4-1.81,2.57-.8,1-1.58,2.06-2.34,3.18-.76,1.12-1.38,2.06-1.85,2.84-.47.78-.7,1.24-.7,1.4l.03.07h.1c.11,0,.33-.04.65-.14.41-.14.86-.34,1.33-.62.25-.14.59-.36,1.01-.67.42-.31.85-.63,1.28-.97.68-.57,1.54-1.34,2.57-2.32,1.03-.98,2.01-1.95,2.94-2.91.94-.96,1.61-1.7,2.02-2.22,2.07-2.76,3.63-4.41,4.65-4.96.16-.07.27-.11.33-.14.06-.02.1-.03.12-.03.05,0,.1.01.17.03.09.02.22.08.38.17.57.36.98.92,1.21,1.66.24.74.36,1.37.36,1.9,0,.34-.05.68-.14,1.03-.11.62-1.16,2.1-3.15,4.45-1.48,1.69-2.63,3.19-3.46,4.51-.32.52-.53.88-.63,1.08-.1.19-.15.33-.15.39,0,.05.01.08.03.1.07.07.21.12.41.14.14.02.28.03.44.03.3,0,.62-.05.96-.14.55-.11,1.07-.3,1.57-.55.75-.39,1.92-1.12,3.51-2.21,1.58-1.08,2.94-2.07,4.05-2.96,1.12-.89,2-1.63,2.63-2.22.39-.39.67-.58.86-.58s.52.2,1.03.61c.02.05.03.1.03.17,0,.14-.03.29-.1.44-.11.23-.38.52-.79.89-.41.37-1,.87-1.78,1.51-1.25,1.03-2.67,2.13-4.26,3.32-1.59,1.19-3.03,2.24-4.34,3.17-1.31.92-2.21,1.5-2.69,1.73-.68.3-1.29.44-1.81.44-.36,0-.68-.07-.96-.21Z"/>
        <path class="cls-1" d="m459.62,598.94c-.5-.25-.98-.62-1.44-1.1-.46-.48-.82-.99-1.09-1.54-.16-.3-.27-.59-.32-.87-.06-.29-.1-.7-.12-1.25v-.51c0-.32.01-.58.03-.79.02-.3.11-.66.27-1.1.68-2.1,2.25-4.77,4.69-8,.73-.98,1.31-1.69,1.75-2.12.43-.43.8-.67,1.09-.72h.17c1.03,0,1.92.74,2.67,2.22.23.41.34.7.34.87v.29c0,.32-.15.73-.44,1.23-.34.57-.89,1.44-1.64,2.6-2.1,3.15-3.15,4.89-3.15,5.23,0,.09.06.14.17.14h.14c.23-.05.5-.17.82-.38.39-.25.97-.68,1.76-1.28.79-.6,1.6-1.34,2.45-2.21.05-.07.11-.14.21-.2.32-.37.76-.82,1.32-1.35.56-.54,1.05-.92,1.47-1.16.42-.24.75-.36.97-.36.21,0,.39.07.55.21.11.16.17.35.17.58,0,.18-.05.39-.14.62-.18.48-.45.96-.8,1.45-.35.49-.69.92-1.01,1.28-.14.18-.25.33-.34.45-1.6,2.07-3.14,3.86-4.62,5.37-1.37,1.39-2.36,2.21-2.96,2.45-.6.24-1.09.36-1.45.36-.5,0-1-.14-1.51-.41Zm11.8-23.33c-.41-.27-.62-.96-.62-2.05,0-.59.07-1.11.21-1.54.14-.43.4-.92.79-1.47.39-.62.69-.98.91-1.08.22-.1.39-.15.53-.15.23,0,.48.08.75.24.48.25.88.63,1.2,1.14.32.51.48,1.03.48,1.56v.17c0,.18-.02.34-.07.48-.07.18-.21.41-.41.68-1.12,1.44-2.13,2.16-3.04,2.16-.25,0-.49-.04-.72-.14Z"/>
        <path class="cls-1" d="m480.59,600.72c-.71-.18-1.35-.53-1.92-1.03-.57-.5-.98-1.09-1.23-1.78-.18-.5-.27-1-.27-1.49v-.91c0-.78.07-1.6.21-2.46.11-.52.17-.91.17-1.16,0-.23-.05-.34-.14-.34h-.07c-.27.11-1.03.95-2.26,2.5-.87,1.1-1.56,1.92-2.07,2.46-.51.55-.95.91-1.32,1.09-.36.18-.75.27-1.16.27-.64,0-1.3-.27-1.98-.82-.68-.55-1.17-1.19-1.47-1.92-.21-.59-.31-1.22-.31-1.88s.09-1.31.27-2.02c.48-1.6,1.33-3.32,2.55-5.17,1.22-1.85,2.5-3.36,3.85-4.55,1.71-1.51,3.28-2.26,4.72-2.26.93,0,1.81.33,2.63.99.34.27.58.42.72.44l.17.03c.21,0,.41-.13.62-.38.25-.3.58-.81.99-1.54,1.48-2.46,2.87-4.56,4.16-6.28,1.29-1.72,2.22-2.72,2.79-2.99.16-.07.32-.1.48-.1.14,0,.26.02.38.07.27.11.6.36.99.75.46.46.72.83.8,1.11.08.29.12.51.12.67,0,.27-.06.56-.17.85-.07.25-.31.72-.72,1.42-.41.7-.89,1.47-1.44,2.31-1.07,1.66-1.93,3.05-2.58,4.17-.65,1.12-1.34,2.39-2.07,3.83-2.1,4.11-3.52,7.5-4.28,10.2-.14.5-.21.89-.21,1.16,0,.25.07.38.21.38.21,0,.54-.24.99-.72.89-.91,2.74-3.12,5.54-6.64.57-.71,1.01-1.21,1.32-1.52.31-.31.51-.48.6-.53.32-.2.59-.31.82-.31.2,0,.38.08.51.24.16.18.24.41.24.68,0,.34-.13.75-.38,1.23-.18.37-.61,1.07-1.28,2.1-.67,1.04-1.39,2.12-2.14,3.23-.75,1.12-1.36,1.98-1.81,2.6-1.98,2.71-3.65,4.07-4.99,4.07-.21,0-.4-.03-.58-.1Zm-6.23-10.71c.36-.37.85-.87,1.47-1.51.62-.64,1.24-1.3,1.88-1.98.64-.68,1.18-1.27,1.62-1.76.45-.49.67-.76.67-.8,0-.11-.08-.17-.24-.17h-.07c-.18,0-.41.08-.68.24-.8.48-1.68,1.21-2.63,2.19-.96.98-1.8,2.01-2.53,3.08-.57.89-.86,1.43-.86,1.61,0,.07.02.1.07.1.16,0,.59-.33,1.3-.99Z"/>
        <path class="cls-1" d="m500.64,601.4c-.53-.18-1.04-.52-1.56-1.01-.51-.49-.92-1.04-1.21-1.66-.11-.23-.19-.43-.24-.62-.05-.18-.08-.4-.1-.67-.02-.26-.03-.63-.03-1.11s.02-.91.05-1.35c.03-.44.06-.77.09-.98.05-.23.07-.39.07-.48,0-.11-.02-.18-.05-.21-.03-.02-.1-.03-.19-.03-.07,0-.27.12-.6.36-.33.24-.72.55-1.18.94-1.41,1.23-2.53,2.09-3.34,2.56-.81.48-1.52.72-2.14.72-.89,0-1.68-.35-2.38-1.06-.7-.71-1.2-1.66-1.52-2.87-.09-.41-.14-.83-.14-1.27,0-1.53.49-3.28,1.47-5.27,1.25-2.55,2.9-4.64,4.93-6.26.59-.43,1.29-.85,2.09-1.25.8-.4,1.5-.68,2.12-.84.48-.11.97-.17,1.47-.17h.41c.64.05,1.17.17,1.61.38.89.48,1.69,1.25,2.39,2.32.39.62.67.92.86.92.07,0,.19-.05.36-.15.17-.1.35-.23.53-.39.23-.21.42-.35.58-.43.16-.08.33-.12.51-.12.91,0,1.68.65,2.29,1.95.18.39.28.75.29,1.09.01.34-.13.78-.41,1.32-.29.54-.75,1.31-1.39,2.31-1.09,1.76-2.03,3.4-2.81,4.93-.78,1.53-1.16,2.49-1.16,2.87.02.16.1.24.24.24.2,0,.52-.17.96-.51.21-.16.75-.68,1.64-1.56.89-.88,1.92-1.9,3.08-3.06,1.23-1.21,2.26-2.21,3.1-3.01.83-.8,1.33-1.23,1.49-1.3.18-.07.35-.1.51-.1.25,0,.46.08.62.24.18.18.27.43.27.75,0,.14-.01.27-.03.41-.16.39-.79,1.28-1.88,2.69-1.1,1.4-2.35,2.92-3.76,4.55-1.41,1.63-2.66,2.99-3.73,4.09-.96.98-1.69,1.59-2.19,1.83-.5.24-.93.36-1.3.36-.23,0-.46-.03-.68-.1Zm-8.55-9.44c.18-.11.55-.4,1.09-.86.55-.46,1.15-.97,1.81-1.54,1.39-1.25,2.42-2.16,3.1-2.7.67-.55,1.31-1.04,1.9-1.47.71-.5,1.11-.83,1.21-.99.1-.16.15-.29.15-.38,0-.14-.08-.26-.24-.38-.14-.11-.32-.17-.55-.17-.27,0-.6.07-.99.21-.78.25-1.62.67-2.53,1.27-1.8,1.3-3.43,3-4.89,5.1-.73,1.1-1.09,1.8-1.09,2.12,0,.11.06.17.17.17.18,0,.47-.12.86-.37Z"/>
        <path class="cls-1" d="m510.97,598.36c-.14-.07-.3-.17-.48-.29-.18-.13-.35-.27-.51-.43-.82-.75-1.23-1.78-1.23-3.08,0-.98.23-2.1.68-3.35.52-1.53,1.37-3.4,2.55-5.61,1.17-2.21,2.31-4.09,3.4-5.64.62-.89,1.07-1.37,1.35-1.44.28-.07.47-.1.56-.1.41,0,.87.26,1.37.79.43.43.76.87.97,1.3.22.43.32.8.32,1.09,0,.07-.01.14-.03.21-.02.14-.16.46-.41.96-.25.5-.55,1.07-.89,1.71-.37.64-.66,1.16-.87,1.57-.22.41-.38.72-.48.94-.1.22-.15.35-.15.41v.12s.01.08.03.1c.02.02.05.03.07.03.05,0,.1-.03.17-.1.11-.07.3-.23.55-.48.25-.25.61-.63,1.08-1.13.47-.5,1.07-1.15,1.8-1.95.62-.66,1.26-1.34,1.93-2.05.67-.71,1.23-1.27,1.66-1.68.41-.41.74-.72.97-.94.24-.22.42-.36.55-.43.13-.07.26-.1.39-.1.64,0,1.17.33,1.61.99.43.59.65,1.27.65,2.02v.21c-.07.82-.42,2.03-1.06,3.63-.32.84-.66,1.74-1.03,2.7-.18.46-.33.85-.44,1.16-.46,1.12-.68,1.88-.68,2.29,0,.23.08.34.24.34h.07c.5-.11,1.82-1.27,3.97-3.46.73-.71,1.37-1.22,1.93-1.54.56-.32.96-.48,1.21-.48.16,0,.28.06.38.17.05.07.07.15.07.24,0,.39-.31,1.08-.92,2.09-.46.75-.99,1.51-1.59,2.28-.6.76-1.14,1.43-1.61,1.98-.47.56-.74.89-.8.98-.68.71-1.24,1.18-1.68,1.42-.43.24-.9.36-1.4.36-.93,0-1.78-.42-2.53-1.27-.98-1-1.47-2.24-1.47-3.7,0-.66.1-1.38.31-2.15.09-.39.17-.74.24-1.06.07-.32.1-.51.1-.58,0-.16-.05-.24-.14-.24-.14,0-.34.14-.62.41-.41.43-1.15,1.36-2.22,2.79-1.07,1.43-2.15,2.91-3.25,4.47-.75,1.07-1.35,1.88-1.8,2.43-.45.55-.8.91-1.06,1.08-.26.17-.53.26-.8.26-.16,0-.34-.02-.53-.07-.19-.05-.36-.1-.5-.17Z"/>
        <path class="cls-1" d="m541.59,600.72c-.71-.18-1.35-.53-1.92-1.03-.57-.5-.98-1.09-1.23-1.78-.18-.5-.27-1-.27-1.49v-.91c0-.78.07-1.6.21-2.46.11-.52.17-.91.17-1.16,0-.23-.05-.34-.14-.34h-.07c-.27.11-1.03.95-2.26,2.5-.87,1.1-1.56,1.92-2.07,2.46-.51.55-.95.91-1.32,1.09-.36.18-.75.27-1.16.27-.64,0-1.3-.27-1.98-.82-.68-.55-1.17-1.19-1.47-1.92-.21-.59-.31-1.22-.31-1.88s.09-1.31.27-2.02c.48-1.6,1.33-3.32,2.55-5.17,1.22-1.85,2.5-3.36,3.85-4.55,1.71-1.51,3.28-2.26,4.72-2.26.94,0,1.81.33,2.63.99.34.27.58.42.72.44l.17.03c.21,0,.41-.13.62-.38.25-.3.58-.81.99-1.54,1.48-2.46,2.87-4.56,4.16-6.28,1.29-1.72,2.22-2.72,2.79-2.99.16-.07.32-.1.48-.1.14,0,.26.02.38.07.27.11.6.36.99.75.46.46.72.83.8,1.11.08.29.12.51.12.67,0,.27-.06.56-.17.85-.07.25-.31.72-.72,1.42-.41.7-.89,1.47-1.44,2.31-1.07,1.66-1.93,3.05-2.58,4.17-.65,1.12-1.34,2.39-2.07,3.83-2.1,4.11-3.52,7.5-4.28,10.2-.14.5-.21.89-.21,1.16,0,.25.07.38.21.38.21,0,.54-.24.99-.72.89-.91,2.74-3.12,5.54-6.64.57-.71,1.01-1.21,1.32-1.52.31-.31.51-.48.6-.53.32-.2.59-.31.82-.31.2,0,.38.08.51.24.16.18.24.41.24.68,0,.34-.13.75-.38,1.23-.18.37-.61,1.07-1.28,2.1-.67,1.04-1.39,2.12-2.14,3.23-.75,1.12-1.36,1.98-1.81,2.6-1.98,2.71-3.65,4.07-4.99,4.07-.21,0-.4-.03-.58-.1Zm-6.23-10.71c.36-.37.85-.87,1.47-1.51.62-.64,1.24-1.3,1.88-1.98.64-.68,1.18-1.27,1.62-1.76.45-.49.67-.76.67-.8,0-.11-.08-.17-.24-.17h-.07c-.18,0-.41.08-.68.24-.8.48-1.68,1.21-2.63,2.19-.96.98-1.8,2.01-2.53,3.08-.57.89-.86,1.43-.86,1.61,0,.07.02.1.07.1.16,0,.59-.33,1.3-.99Z"/>
        <path class="cls-1" d="m550.45,600.89c-1.05-.53-1.94-1.5-2.67-2.91-.18-.34-.31-.62-.39-.84-.08-.22-.13-.46-.15-.72-.02-.26-.05-.64-.07-1.15v-.62c0-.36.01-.67.03-.92.02-.36.11-.8.27-1.3.39-1.3,1.01-2.7,1.86-4.19.86-1.5,1.83-2.84,2.92-4.05.55-.62,1.11-1.17,1.68-1.68.57-.5,1.03-.84,1.37-1.03.32-.14.63-.2.92-.2.77,0,1.47.47,2.09,1.4.39.66.69,1.15.91,1.47.22.32.4.55.56.68.16.14.36.26.62.38.75.39,1.57.66,2.45.82.88.16,1.56.24,2.04.24.89,0,1.85-.14,2.87-.41.57-.16,1.08-.24,1.54-.24.23,0,.44.02.65.07.55.09.82.31.82.65v.07c-.05.37-.64.85-1.78,1.44-1.39.71-2.5,1.11-3.32,1.21-.82.1-1.6.16-2.33.16h-.72c-.48-.02-1.02-.03-1.61-.03-.27,0-.43.02-.48.07-.02.05-.06.22-.12.53-.06.31-.11.68-.15,1.11-.18,2.78-1.4,5.29-3.66,7.53-1.78,1.85-3.38,2.77-4.79,2.77-.48,0-.94-.1-1.37-.31Zm2.46-4.69c.52-.37,1.12-.88,1.78-1.54.66-.66,1.17-1.23,1.54-1.71,1.05-1.55,1.57-3.11,1.57-4.69,0-.34-.02-.57-.05-.68-.03-.11-.11-.21-.22-.27-.07-.02-.13-.03-.17-.03h-.07c-.09.02-.21.1-.34.22-.14.13-.34.33-.62.6-.96,1-1.87,2.16-2.74,3.46-.87,1.3-1.48,2.36-1.85,3.18-.37.82-.55,1.39-.55,1.71,0,.18.06.31.17.38h.14c.32,0,.79-.2,1.4-.61Z"/>
        <path class="cls-1" d="m595.53,600.72c-.71-.18-1.35-.53-1.92-1.03-.57-.5-.98-1.09-1.23-1.78-.18-.5-.27-1-.27-1.49v-.91c0-.78.07-1.6.21-2.46.11-.52.17-.91.17-1.16,0-.23-.05-.34-.14-.34h-.07c-.27.11-1.03.95-2.26,2.5-.87,1.1-1.56,1.92-2.07,2.46-.51.55-.95.91-1.32,1.09-.36.18-.75.27-1.16.27-.64,0-1.3-.27-1.98-.82-.68-.55-1.17-1.19-1.47-1.92-.21-.59-.31-1.22-.31-1.88s.09-1.31.27-2.02c.48-1.6,1.33-3.32,2.55-5.17,1.22-1.85,2.5-3.36,3.85-4.55,1.71-1.51,3.28-2.26,4.72-2.26.93,0,1.81.33,2.63.99.34.27.58.42.72.44l.17.03c.21,0,.41-.13.62-.38.25-.3.58-.81.99-1.54,1.48-2.46,2.87-4.56,4.16-6.28,1.29-1.72,2.22-2.72,2.79-2.99.16-.07.32-.1.48-.1.14,0,.26.02.38.07.27.11.6.36.99.75.46.46.72.83.8,1.11.08.29.12.51.12.67,0,.27-.06.56-.17.85-.07.25-.31.72-.72,1.42-.41.7-.89,1.47-1.44,2.31-1.07,1.66-1.93,3.05-2.58,4.17-.65,1.12-1.34,2.39-2.07,3.83-2.1,4.11-3.52,7.5-4.28,10.2-.14.5-.21.89-.21,1.16,0,.25.07.38.21.38.21,0,.54-.24.99-.72.89-.91,2.74-3.12,5.54-6.64.57-.71,1.01-1.21,1.32-1.52.31-.31.51-.48.6-.53.32-.2.59-.31.82-.31.2,0,.38.08.51.24.16.18.24.41.24.68,0,.34-.13.75-.38,1.23-.18.37-.61,1.07-1.28,2.1-.67,1.04-1.39,2.12-2.14,3.23-.75,1.12-1.36,1.98-1.81,2.6-1.98,2.71-3.65,4.07-4.99,4.07-.21,0-.4-.03-.58-.1Zm-6.23-10.71c.36-.37.86-.87,1.47-1.51.62-.64,1.24-1.3,1.88-1.98.64-.68,1.18-1.27,1.62-1.76.45-.49.67-.76.67-.8,0-.11-.08-.17-.24-.17h-.07c-.18,0-.41.08-.68.24-.8.48-1.68,1.21-2.63,2.19-.96.98-1.8,2.01-2.53,3.08-.57.89-.86,1.43-.86,1.61,0,.07.02.1.07.1.16,0,.59-.33,1.3-.99Z"/>
        <path class="cls-1" d="m604.4,600.89c-1.05-.53-1.94-1.5-2.67-2.91-.18-.34-.31-.62-.39-.84-.08-.22-.13-.46-.15-.72-.02-.26-.05-.64-.07-1.15v-.62c0-.36.01-.67.03-.92.02-.36.11-.8.27-1.3.39-1.3,1.01-2.7,1.86-4.19.86-1.5,1.83-2.84,2.92-4.05.55-.62,1.11-1.17,1.68-1.68.57-.5,1.03-.84,1.37-1.03.32-.14.63-.2.92-.2.77,0,1.47.47,2.09,1.4.39.66.69,1.15.91,1.47.22.32.4.55.56.68.16.14.36.26.62.38.75.39,1.57.66,2.45.82.88.16,1.56.24,2.04.24.89,0,1.85-.14,2.87-.41.57-.16,1.08-.24,1.54-.24.23,0,.44.02.65.07.55.09.82.31.82.65v.07c-.05.37-.64.85-1.78,1.44-1.39.71-2.5,1.11-3.32,1.21-.82.1-1.6.16-2.33.16h-.72c-.48-.02-1.02-.03-1.61-.03-.27,0-.43.02-.48.07-.02.05-.06.22-.12.53-.06.31-.11.68-.15,1.11-.18,2.78-1.4,5.29-3.66,7.53-1.78,1.85-3.38,2.77-4.79,2.77-.48,0-.94-.1-1.37-.31Zm2.46-4.69c.52-.37,1.12-.88,1.78-1.54.66-.66,1.17-1.23,1.54-1.71,1.05-1.55,1.57-3.11,1.57-4.69,0-.34-.02-.57-.05-.68-.03-.11-.11-.21-.22-.27-.07-.02-.13-.03-.17-.03h-.07c-.09.02-.21.1-.34.22-.14.13-.34.33-.62.6-.96,1-1.87,2.16-2.74,3.46-.87,1.3-1.48,2.36-1.85,3.18-.37.82-.55,1.39-.55,1.71,0,.18.06.31.17.38h.14c.32,0,.79-.2,1.4-.61Z"/>
        <path class="cls-1" d="m641.82,606.29c-.55-.14-1.04-.32-1.47-.56-.43-.24-.89-.58-1.37-1.01-.27-.25-.57-.5-.89-.75-.32-.25-.59-.46-.82-.62-.93-.73-1.4-1.57-1.4-2.53s.54-2.52,1.61-4.82c.57-1.23,1.57-3.28,2.99-6.16,1.43-2.87,2.83-5.7,4.22-8.48,1.39-2.78,2.33-4.64,2.81-5.58,1.39-2.6,2.69-4.96,3.88-7.08,1.2-2.12,1.92-3.33,2.17-3.63.27-.23.55-.34.82-.34.57,0,1.14.49,1.71,1.47.2.36.31.66.32.89.01.23.02.38.02.44,0,.34-.09.79-.27,1.34-.25.66-.68,1.61-1.3,2.86-.62,1.24-1.47,2.91-2.57,5.01-1.64,3.15-2.97,5.73-3.98,7.75-1.02,2.02-1.52,3.09-1.52,3.23,0,.16.09.24.27.24.07,0,.14-.01.21-.03.3-.09.87-.33,1.71-.72,3.26-1.57,6.02-2.5,8.28-2.77h.48c.68,0,1.03.13,1.03.38,0,.12-.09.27-.27.48-.23.21-.8.54-1.71.99-.91.46-1.9.91-2.98,1.37-1.76.75-3.48,1.65-5.17,2.69-1.69,1.04-3.04,2.04-4.07,2.99-.34.3-.62.58-.82.84-.2.26-.44.62-.72,1.08-.27.46-.66,1.16-1.16,2.12-.05.12-.1.23-.17.34-.43.82-.79,1.5-1.08,2.02-.29.52-.5.94-.65,1.25-.15.31-.26.54-.33.7s-.1.27-.1.34.01.14.03.2v.03c.18.5.6.78,1.27.82.66.05,1.08.07,1.27.07,1.05,0,2.27-.17,3.66-.51,2.81-.75,5.53-2.01,8.18-3.76.96-.62,1.81-1.24,2.55-1.86.74-.63,1.59-1.42,2.55-2.38,3.88-3.97,6.92-8.65,9.13-14.06,1.48-3.6,2.22-7.04,2.22-10.3,0-4.22-1.15-7.08-3.45-8.59-2.01-1.37-4.31-2.05-6.91-2.05-3.01,0-6.41.9-10.2,2.7-4.95,2.44-8.84,5.32-11.67,8.65-.27.34-.52.64-.75.91-.23.26-.38.41-.45.46-.16.12-.31.17-.44.17-.16,0-.32-.07-.48-.21-.25-.23-.38-.56-.38-.99v-.2c.07-.78,1.17-2.26,3.32-4.45,4.49-4.74,9.45-7.92,14.88-9.55,1.19-.39,2.17-.64,2.96-.77.79-.12,1.8-.19,3.03-.19,1.32,0,2.38.08,3.16.24.79.16,1.66.48,2.62.96,3.12,1.6,5.21,3.89,6.26,6.89,1.05,3,1.57,5.79,1.57,8.37,0,1.78-.18,3.64-.55,5.58-.5,2.71-1.55,5.66-3.15,8.83-3.17,6.39-7.39,11.36-12.66,14.91-1.55,1-3.24,1.9-5.06,2.7-1.83.8-3.48,1.33-4.96,1.61-.75.14-1.45.21-2.09.21h-1.16c-.89,0-1.56-.06-2.02-.17Z"/>
        <path class="cls-1" d="m674.39,598.94c-.5-.25-.98-.62-1.44-1.1-.46-.48-.82-.99-1.09-1.54-.16-.3-.27-.59-.32-.87-.06-.29-.1-.7-.12-1.25v-.51c0-.32.01-.58.03-.79.02-.3.11-.66.27-1.1.68-2.1,2.25-4.77,4.69-8,.73-.98,1.31-1.69,1.74-2.12.43-.43.8-.67,1.1-.72h.17c1.03,0,1.91.74,2.67,2.22.23.41.34.7.34.87v.29c0,.32-.15.73-.44,1.23-.34.57-.89,1.44-1.64,2.6-2.1,3.15-3.15,4.89-3.15,5.23,0,.09.06.14.17.14h.14c.23-.05.5-.17.82-.38.39-.25.97-.68,1.76-1.28.79-.6,1.6-1.34,2.45-2.21.05-.07.11-.14.21-.2.32-.37.76-.82,1.32-1.35.56-.54,1.05-.92,1.47-1.16.42-.24.75-.36.97-.36.21,0,.39.07.55.21.11.16.17.35.17.58,0,.18-.05.39-.14.62-.18.48-.45.96-.8,1.45-.35.49-.69.92-1.01,1.28-.14.18-.25.33-.34.45-1.6,2.07-3.14,3.86-4.62,5.37-1.37,1.39-2.35,2.21-2.96,2.45-.6.24-1.09.36-1.45.36-.5,0-1-.14-1.5-.41Zm11.8-23.33c-.41-.27-.62-.96-.62-2.05,0-.59.07-1.11.21-1.54.14-.43.4-.92.79-1.47.39-.62.69-.98.91-1.08.22-.1.39-.15.53-.15.23,0,.48.08.75.24.48.25.88.63,1.2,1.14.32.51.48,1.03.48,1.56v.17c0,.18-.02.34-.07.48-.07.18-.2.41-.41.68-1.12,1.44-2.13,2.16-3.04,2.16-.25,0-.49-.04-.72-.14Z"/>
        <path class="cls-1" d="m680.51,607.22c-1.07-.32-1.95-1.13-2.63-2.43-.21-.46-.33-.87-.38-1.25-.05-.38-.07-.66-.07-.84,0-.34.05-.65.14-.92.84-2.26,3.6-5.02,8.28-8.28.48-.34.82-.61,1.01-.8.19-.19.29-.38.29-.56,0-.07-.07-.21-.21-.41-.14-.21-.3-.44-.48-.72-1.16-1.48-1.75-3.08-1.75-4.79,0-.23.01-.44.04-.65,0-.5.03-.9.1-1.18.07-.28.22-.63.44-1.04.66-1.25,1.82-2.57,3.49-3.95,1.66-1.38,3.2-2.32,4.62-2.82.39-.11.75-.17,1.1-.17,1.25,0,2.02.91,2.29,2.74.02.09.03.18.03.27,0,.37-.11.71-.34,1.03-.27.39-.8.83-1.57,1.33-2.46,1.71-4.3,3.3-5.51,4.76-.34.41-.51.76-.51,1.06v.14c.07.32.4.75.99,1.3.41.41.72.67.93.79.2.11.4.17.58.17.14,0,.28-.02.44-.07.34-.12.86-.34,1.54-.68,1.96-.96,3.47-1.63,4.51-2.02,1.05-.39,1.91-.58,2.6-.58.62,0,.92.15.92.44,0,.09-.02.18-.07.27-.14.25-.51.6-1.13,1.04-.62.45-1.33.9-2.16,1.35-1.28.71-2.28,1.26-3,1.66-.72.4-1.22.7-1.52.91-.3.2-.47.35-.51.44-.02.07-.04.17-.04.31v.21c.02.21.09.54.21.99.14.45.22.83.24,1.11.02.29.03.55.03.8s-.01.55-.03.89c-.02.87-.11,1.59-.26,2.15-.15.57-.42,1.18-.8,1.81-.32.53-.84,1.14-1.56,1.85-.72.71-1.41,1.31-2.07,1.81-1.46,1-2.82,1.7-4.07,2.09-1.26.39-2.27.58-3.05.58-.41,0-.79-.05-1.13-.14Zm3.08-5.92c.68-.34,1.32-.74,1.9-1.18.58-.44,1.24-1.03,1.97-1.76,1.39-1.32,2.12-2.27,2.19-2.84.02-.12.03-.19.03-.24,0-.07-.01-.11-.03-.14-.05-.05-.11-.07-.2-.07s-.18.01-.28.03c-.14.05-.53.3-1.18.77-.65.47-1.35,1.01-2.09,1.62-.74.62-1.35,1.14-1.83,1.57-1.37,1.3-2.05,2.14-2.05,2.53,0,.16.08.24.24.24.25,0,.7-.18,1.33-.55Z"/>
        <path class="cls-1" d="m699.77,603.83c-1.53-.64-2.67-1.77-3.42-3.39-.16-.32-.27-.63-.33-.92-.06-.3-.09-.75-.09-1.37v-.65c0-.75.06-1.41.17-1.98.98-4.36,3.4-9.56,7.25-15.6.3-.45.54-.86.72-1.2.18-.34.27-.56.27-.65v-.03c0-.16-.18-.25-.55-.27h-.13c-.23,0-.59.05-1.1.14-.59.09-1.23.22-1.92.37-.68.16-1.28.32-1.78.48-.64.2-1.13.31-1.47.31-.11,0-.21-.01-.31-.03-.3-.09-.44-.38-.44-.86v-.1c.02-.59.26-1.2.72-1.81.45-.62,1-1.09,1.64-1.44.71-.34,1.8-.69,3.29-1.03,1.48-.34,2.84-.58,4.07-.72.64-.05,1.13-.12,1.49-.22.35-.1.71-.31,1.08-.62.36-.31.84-.79,1.44-1.45,2.96-3.08,5.67-5.36,8.11-6.84,1.37-.78,2.52-1.16,3.46-1.16.87,0,1.55.32,2.05.96.68.82,1.03,1.71,1.03,2.67s-.37,2.03-1.09,3.15l-.1.14c-.32.52-.56.94-.74,1.23-.17.3-.28.5-.32.62-.05.12-.07.2-.07.27v.03c0,.07.04.12.1.17.07.09.25.16.55.21.29.05.78.09,1.44.14.39.02.83.05,1.33.07.89.07,1.72.13,2.5.17,3.81.25,5.89,1.05,6.26,2.39.02.12.03.23.03.34,0,.14-.02.29-.07.44-.09.25-.23.42-.41.51-.16.05-.38.07-.65.07h-.27c-.39-.02-.83-.09-1.34-.21-.5-.09-1.39-.17-2.67-.24-1.28-.07-2.4-.11-3.35-.12-.96-.01-1.65-.02-2.09-.02-.87,0-1.63.01-2.29.03-.68.05-1.28.1-1.78.15-.5.06-.81.11-.92.15-.09.07-.41.36-.96.86-.55.5-1.18,1.11-1.91,1.81-3.6,3.53-6.39,5.92-8.35,7.15-.2.11-.45.23-.75.36-.3.12-.58.23-.86.32-.34.12-.62.25-.84.39-.22.15-.43.4-.65.75-.22.35-.51.91-.87,1.66-1,2.03-1.84,3.93-2.5,5.71-.66,1.78-1.01,3.06-1.06,3.83v.55c0,.11.03.19.09.22.06.03.14.06.26.09h.04c.41,0,1.14-.34,2.19-1.03,1.12-.71,2.36-1.64,3.73-2.81.91-.75,2.09-1.81,3.54-3.16,1.45-1.36,2.7-2.58,3.75-3.68,1.57-1.69,2.77-2.53,3.59-2.53.43,0,.67.14.72.41.04.27.07.46.07.55,0,.41-.15.91-.44,1.51-.23.46-.77,1.23-1.63,2.31-.85,1.08-1.81,2.23-2.87,3.44-1.06,1.21-2.01,2.25-2.86,3.11-4.1,4.15-7.18,6.23-9.24,6.23-.2,0-.44-.03-.7-.1-.26-.07-.52-.15-.77-.24Zm11.8-25.45c.87-.75,1.3-1.28,1.3-1.57,0-.07-.02-.12-.07-.17-.07-.05-.15-.07-.24-.07-.41,0-1,.56-1.78,1.68-.32.48-.48.79-.48.92,0,.05.02.07.07.07.14,0,.54-.29,1.2-.86Zm6.12-6.43c.16-.11.41-.36.75-.74.34-.38.68-.78,1.03-1.2.34-.42.58-.76.72-1.01.04-.09.07-.18.09-.26.01-.08,0-.13-.02-.15-.02-.02-.05-.03-.07-.03-.27,0-1.02.52-2.22,1.57-1.12.96-1.68,1.56-1.68,1.81,0,.05.01.08.04.1.07.09.22.14.44.14h.14c.27-.02.54-.1.79-.24Z"/>
        <path class="cls-1" d="m718.49,606.47c-.39-.18-.79-.5-1.21-.94-.42-.45-.77-.92-1.04-1.42-.32-.73-.48-1.48-.48-2.26,0-.39.04-.77.1-1.16.25-1.21.63-2.31,1.13-3.32.71-1.53,1.66-3.11,2.87-4.75.41-.59.77-1.11,1.06-1.56.3-.44.45-.7.48-.77.02-.05.03-.08.03-.1,0-.11-.08-.18-.24-.2-.21-.07-.62-.1-1.23-.1-.98,0-1.83-.31-2.55-.94-.72-.63-1.21-1.32-1.47-2.07-.26-.75-.39-1.41-.39-1.98,0-.34.04-.67.1-.99.11-.55.35-1.24.72-2.07.36-.83.75-1.61,1.16-2.34.41-.73.76-1.23,1.06-1.51.27-.2.53-.31.79-.31.61,0,1.22.56,1.81,1.68.27.48.41.95.41,1.4,0,.11-.01.22-.03.31-.09.55-.41,1.38-.96,2.5-.25.52-.46.99-.63,1.4-.17.41-.26.66-.26.75,0,.23.14.39.41.48.27.09.8.14,1.57.14.36,0,.72.01,1.06.03.34.02.58.05.72.07.64.21,1.19.64,1.64,1.3.46.66.68,1.35.68,2.05,0,.48-.09.99-.26,1.52-.17.54-.51,1.3-1.01,2.29-.5.99-.98,1.94-1.44,2.86-.89,1.6-1.43,2.63-1.63,3.1-.19.47-.29.78-.29.94,0,.14.06.21.17.21.09,0,.86-.7,2.31-2.09,1.45-1.39,3.02-2.94,4.72-4.65,1.7-1.71,3.11-3.15,4.23-4.31.73-.78,1.37-1.44,1.91-2,.55-.56.89-.87,1.03-.94.27-.11.49-.17.65-.17.3,0,.45.18.45.55,0,.11-.01.24-.04.38-.25.66-1.56,2.44-3.93,5.34-2.37,2.9-5.17,6.22-8.38,9.95-1.59,1.89-2.7,3.04-3.3,3.42-.6.39-1.11.58-1.52.58-.34,0-.67-.09-.99-.27Z"/>
        <path class="cls-1" d="m734.15,598.94c-.5-.25-.98-.62-1.44-1.1-.46-.48-.82-.99-1.1-1.54-.16-.3-.27-.59-.32-.87-.06-.29-.1-.7-.12-1.25v-.51c0-.32.01-.58.04-.79.02-.3.11-.66.27-1.1.68-2.1,2.25-4.77,4.69-8,.73-.98,1.31-1.69,1.74-2.12.43-.43.8-.67,1.1-.72h.17c1.03,0,1.91.74,2.67,2.22.23.41.34.7.34.87v.29c0,.32-.15.73-.44,1.23-.34.57-.89,1.44-1.64,2.6-2.1,3.15-3.15,4.89-3.15,5.23,0,.09.06.14.17.14h.14c.23-.05.5-.17.82-.38.39-.25.97-.68,1.76-1.28.79-.6,1.6-1.34,2.44-2.21.05-.07.11-.14.2-.2.32-.37.76-.82,1.32-1.35.56-.54,1.05-.92,1.47-1.16.42-.24.75-.36.97-.36.2,0,.39.07.55.21.12.16.17.35.17.58,0,.18-.05.39-.14.62-.18.48-.45.96-.8,1.45-.35.49-.69.92-1.01,1.28-.14.18-.25.33-.34.45-1.6,2.07-3.14,3.86-4.62,5.37-1.37,1.39-2.35,2.21-2.96,2.45-.6.24-1.09.36-1.45.36-.5,0-1.01-.14-1.51-.41Zm11.8-23.33c-.41-.27-.62-.96-.62-2.05,0-.59.07-1.11.21-1.54.14-.43.4-.92.79-1.47.39-.62.69-.98.9-1.08.22-.1.39-.15.53-.15.23,0,.48.08.75.24.48.25.88.63,1.2,1.14.32.51.48,1.03.48,1.56v.17c0,.18-.02.34-.07.48-.07.18-.2.41-.41.68-1.12,1.44-2.13,2.16-3.04,2.16-.25,0-.49-.04-.72-.14Z"/>
        <path class="cls-1" d="m745.14,603.83c-1.53-.64-2.67-1.77-3.42-3.39-.16-.32-.27-.63-.33-.92-.06-.3-.09-.75-.09-1.37v-.65c0-.75.06-1.41.17-1.98.98-4.36,3.4-9.56,7.25-15.6.3-.45.54-.86.72-1.2.18-.34.27-.56.27-.65v-.03c0-.16-.18-.25-.55-.27h-.14c-.23,0-.59.05-1.09.14-.59.09-1.23.22-1.92.37-.68.16-1.28.32-1.78.48-.64.2-1.13.31-1.47.31-.11,0-.22-.01-.31-.03-.3-.09-.45-.38-.45-.86v-.1c.02-.59.26-1.2.72-1.81.46-.62,1.01-1.09,1.64-1.44.71-.34,1.8-.69,3.28-1.03,1.48-.34,2.84-.58,4.07-.72.64-.05,1.13-.12,1.49-.22.35-.1.71-.31,1.08-.62.36-.31.84-.79,1.44-1.45,2.96-3.08,5.67-5.36,8.11-6.84,1.37-.78,2.52-1.16,3.45-1.16.87,0,1.55.32,2.05.96.68.82,1.03,1.71,1.03,2.67s-.36,2.03-1.09,3.15l-.1.14c-.32.52-.57.94-.74,1.23-.17.3-.28.5-.33.62-.05.12-.07.2-.07.27v.03c0,.07.03.12.1.17.07.09.25.16.55.21.3.05.78.09,1.44.14.39.02.83.05,1.33.07.89.07,1.72.13,2.5.17,3.81.25,5.89,1.05,6.26,2.39.02.12.03.23.03.34,0,.14-.02.29-.07.44-.09.25-.23.42-.41.51-.16.05-.37.07-.65.07h-.27c-.39-.02-.83-.09-1.33-.21-.5-.09-1.39-.17-2.67-.24-1.28-.07-2.4-.11-3.35-.12-.96-.01-1.65-.02-2.09-.02-.87,0-1.63.01-2.29.03-.68.05-1.28.1-1.78.15-.5.06-.81.11-.92.15-.09.07-.41.36-.96.86-.55.5-1.19,1.11-1.92,1.81-3.6,3.53-6.39,5.92-8.35,7.15-.21.11-.46.23-.75.36-.3.12-.58.23-.86.32-.34.12-.62.25-.84.39-.21.15-.43.4-.65.75-.22.35-.51.91-.87,1.66-1,2.03-1.83,3.93-2.5,5.71-.66,1.78-1.02,3.06-1.06,3.83v.55c0,.11.03.19.09.22.06.03.14.06.26.09h.04c.41,0,1.14-.34,2.19-1.03,1.12-.71,2.36-1.64,3.73-2.81.91-.75,2.09-1.81,3.54-3.16,1.45-1.36,2.7-2.58,3.75-3.68,1.57-1.69,2.77-2.53,3.59-2.53.43,0,.67.14.72.41.04.27.07.46.07.55,0,.41-.15.91-.44,1.51-.23.46-.77,1.23-1.62,2.31-.86,1.08-1.81,2.23-2.87,3.44-1.06,1.21-2.01,2.25-2.86,3.11-4.11,4.15-7.18,6.23-9.24,6.23-.2,0-.44-.03-.7-.1-.26-.07-.52-.15-.77-.24Zm11.8-25.45c.87-.75,1.3-1.28,1.3-1.57,0-.07-.02-.12-.07-.17-.07-.05-.15-.07-.24-.07-.41,0-1,.56-1.78,1.68-.32.48-.48.79-.48.92,0,.05.02.07.07.07.14,0,.54-.29,1.2-.86Zm6.12-6.43c.16-.11.41-.36.75-.74.34-.38.68-.78,1.03-1.2.34-.42.58-.76.72-1.01.04-.09.07-.18.08-.26.01-.08,0-.13-.02-.15-.02-.02-.04-.03-.07-.03-.27,0-1.02.52-2.23,1.57-1.12.96-1.68,1.56-1.68,1.81,0,.05.01.08.03.1.07.09.22.14.45.14h.13c.27-.02.54-.1.79-.24Z"/>
        <path class="cls-1" d="m761.66,600.89c-1.05-.53-1.94-1.5-2.67-2.91-.18-.34-.31-.62-.39-.84-.08-.22-.13-.46-.15-.72-.02-.26-.05-.64-.07-1.15v-.62c0-.36.01-.67.03-.92.02-.36.12-.8.28-1.3.39-1.3,1.01-2.7,1.86-4.19.86-1.5,1.83-2.84,2.93-4.05.55-.62,1.11-1.17,1.67-1.68.57-.5,1.03-.84,1.37-1.03.32-.14.63-.2.92-.2.78,0,1.47.47,2.09,1.4.39.66.69,1.15.91,1.47.22.32.4.55.56.68.16.14.37.26.62.38.75.39,1.57.66,2.44.82.88.16,1.56.24,2.04.24.89,0,1.85-.14,2.87-.41.57-.16,1.08-.24,1.54-.24.23,0,.44.02.65.07.55.09.82.31.82.65v.07c-.05.37-.64.85-1.78,1.44-1.39.71-2.5,1.11-3.32,1.21-.82.1-1.6.16-2.33.16h-.72c-.48-.02-1.01-.03-1.61-.03-.27,0-.43.02-.48.07-.02.05-.06.22-.12.53-.06.31-.11.68-.15,1.11-.18,2.78-1.4,5.29-3.66,7.53-1.78,1.85-3.38,2.77-4.79,2.77-.48,0-.94-.1-1.37-.31Zm2.46-4.69c.52-.37,1.12-.88,1.78-1.54.66-.66,1.18-1.23,1.54-1.71,1.05-1.55,1.58-3.11,1.58-4.69,0-.34-.02-.57-.05-.68-.04-.11-.11-.21-.22-.27-.07-.02-.13-.03-.17-.03h-.07c-.09.02-.2.1-.34.22-.14.13-.34.33-.61.6-.96,1-1.87,2.16-2.74,3.46-.87,1.3-1.48,2.36-1.85,3.18-.37.82-.55,1.39-.55,1.71,0,.18.06.31.17.38h.14c.32,0,.79-.2,1.4-.61Z"/>
        <path class="cls-1" d="m793.99,602.7c-.27-.23-.52-.54-.73-.94-.22-.4-.33-.78-.33-1.15,0-1.3,1.86-5.83,5.58-13.58.3-.62.54-1.15.74-1.61.19-.45.29-.72.29-.79,0-.21-.07-.31-.2-.33-.14-.01-.23-.02-.27-.02-.23,0-.6.05-1.13.14-.43.12-.81.17-1.13.17-.55,0-.89-.17-1.03-.51-.11-.23-.17-.49-.17-.79,0-.23.03-.48.1-.75.14-.66.38-1.19.72-1.57.16-.18.34-.33.55-.44.2-.12.52-.23.94-.34.42-.12,1.03-.26,1.83-.45.62-.14,1.16-.27,1.62-.39.47-.12.76-.22.87-.29.11-.04.22-.11.31-.19.09-.08.2-.22.33-.43.12-.21.31-.51.55-.92.24-.41.55-.97.94-1.68,1.96-3.54,3.85-6.66,5.68-9.37.45-.68.84-1.28,1.16-1.79.32-.51.48-.79.48-.84,0-.16-.06-.26-.19-.31-.12-.05-.28-.07-.46-.07-.12,0-.25.01-.41.03-.41.02-1,.09-1.78.21-.66.09-1.4.21-2.22.36-.82.15-1.54.28-2.16.39-.75.14-1.26.22-1.52.26-.26.03-.44.05-.53.05-.2,0-.36-.03-.48-.1-.16-.07-.26-.22-.31-.44-.02-.09-.03-.18-.03-.27,0-.41.15-.82.44-1.23.34-.55.82-.96,1.44-1.23.78-.32,2.01-.63,3.7-.92,1.69-.3,3.55-.54,5.58-.72,1.64-.11,4.28-.17,7.9-.17,2.05,0,3.61.02,4.67.05,1.06.03,1.89.1,2.48.21.59.1,1.16.27,1.71.5,1.01.41,1.51.94,1.51,1.58,0,.14-.02.27-.07.41-.12.37-.28.57-.5.62-.22.05-.38.07-.5.07-.34,0-.82-.08-1.44-.24-.27-.05-.6-.09-.99-.12-.39-.03-.96-.06-1.73-.07-.76-.01-1.85-.02-3.27-.02-1.57,0-2.79,0-3.64.02-.86.01-1.48.06-1.86.15-.39.09-.64.24-.75.45-.11.2-.19.48-.24.82-.25,1.19-1.77,4.19-4.55,9-.62,1.07-1.15,2-1.59,2.79-.44.79-.69,1.24-.74,1.35v.14c0,.14.05.26.14.38.05.07.11.11.21.12.09.01.19.02.31.02h.37c.3-.02.74-.07,1.34-.14,1.23-.14,2.47-.21,3.73-.21s2.21.05,2.87.14c1.55.25,2.33.84,2.33,1.78v.07c0,.82-.96,1.23-2.87,1.23-.64,0-1.66.09-3.08.27-1.41.18-2.82.39-4.23.63-1.4.24-2.45.46-3.13.67-.46.14-.81.34-1.06.62-.25.25-2.8,5.34-7.66,15.26-.71,1.46-1.25,2.53-1.62,3.22-.38.68-.68,1.12-.93,1.3-.24.18-.52.27-.84.27-.36,0-.71-.09-1.03-.27Z"/>
        <path class="cls-1" d="m829.05,599.04c-.39-.16-.72-.34-1.01-.53-.29-.19-.59-.46-.91-.81-1.07-1.05-1.61-2.37-1.61-3.97,0-1.14.26-2.41.79-3.8.91-2.42,2.16-4.64,3.75-6.65,1.58-2.02,2.93-3.08,4.02-3.2,1.03,0,1.88.88,2.57,2.63.23.68.35,1.31.36,1.88.01.57.02.92.02,1.06,0,.8-.11,1.49-.34,2.09-.34.75-.83,1.45-1.46,2.1-.63.65-1.29,1.15-2,1.49-.27.14-.47.22-.6.24-.13.02-.23.03-.33.03-.16,0-.34-.01-.55-.03-.11-.02-.23-.03-.34-.03-.32,0-.55.08-.68.24-.2.18-.43.66-.68,1.44-.25.71-.38,1.22-.38,1.54,0,.09.01.17.03.24.07.18.24.27.51.27.14,0,.3-.02.48-.07,1.78-.32,4.76-2.51,8.93-6.57,1.34-1.32,2.29-1.98,2.84-1.98.16,0,.28.07.38.2.11.11.17.31.17.58v.14c-.05.32-.15.67-.31,1.06-.48.89-1.49,2.19-3.03,3.88-1.54,1.7-2.99,3.12-4.36,4.26-1.92,1.53-3.55,2.32-4.89,2.39h-.82c-.25-.02-.43-.07-.55-.14Zm3.53-11.77l.21-.27c.39-.5.75-1.02,1.09-1.54.07-.11.1-.23.1-.34v-.1c-.02-.16-.07-.26-.14-.29-.07-.03-.12-.05-.17-.05-.11,0-.26.06-.44.17-.36.3-.72.65-1.06,1.06-.34.41-.64.83-.89,1.27-.34.61-.51,1.03-.51,1.23v.1c.05.07.1.1.17.1.11,0,.29-.08.51-.24.36-.25.74-.62,1.13-1.09Z"/>
        <path class="cls-1" d="m851.36,600.72c-.71-.18-1.34-.53-1.92-1.03-.57-.5-.98-1.09-1.23-1.78-.18-.5-.27-1-.27-1.49v-.91c0-.78.07-1.6.2-2.46.12-.52.17-.91.17-1.16,0-.23-.04-.34-.14-.34h-.07c-.27.11-1.03.95-2.26,2.5-.87,1.1-1.56,1.92-2.07,2.46-.51.55-.95.91-1.32,1.09-.36.18-.75.27-1.16.27-.64,0-1.3-.27-1.98-.82-.68-.55-1.17-1.19-1.47-1.92-.2-.59-.31-1.22-.31-1.88s.09-1.31.27-2.02c.48-1.6,1.33-3.32,2.55-5.17,1.22-1.85,2.5-3.36,3.85-4.55,1.71-1.51,3.28-2.26,4.72-2.26.94,0,1.81.33,2.63.99.34.27.58.42.72.44l.17.03c.2,0,.41-.13.62-.38.25-.3.58-.81.99-1.54,1.48-2.46,2.87-4.56,4.16-6.28,1.29-1.72,2.22-2.72,2.79-2.99.16-.07.32-.1.48-.1.14,0,.26.02.38.07.27.11.6.36.99.75.46.46.72.83.8,1.11.08.29.12.51.12.67,0,.27-.06.56-.17.85-.07.25-.31.72-.72,1.42-.41.7-.89,1.47-1.44,2.31-1.07,1.66-1.93,3.05-2.58,4.17-.65,1.12-1.34,2.39-2.07,3.83-2.1,4.11-3.52,7.5-4.28,10.2-.14.5-.2.89-.2,1.16,0,.25.07.38.2.38.2,0,.54-.24.99-.72.89-.91,2.74-3.12,5.54-6.64.57-.71,1.01-1.21,1.32-1.52.31-.31.51-.48.6-.53.32-.2.59-.31.82-.31.2,0,.38.08.51.24.16.18.24.41.24.68,0,.34-.13.75-.38,1.23-.18.37-.61,1.07-1.28,2.1-.67,1.04-1.39,2.12-2.14,3.23-.75,1.12-1.36,1.98-1.81,2.6-1.98,2.71-3.65,4.07-5,4.07-.2,0-.4-.03-.58-.1Zm-6.23-10.71c.36-.37.86-.87,1.47-1.51.62-.64,1.24-1.3,1.88-1.98.64-.68,1.18-1.27,1.63-1.76.44-.49.67-.76.67-.8,0-.11-.08-.17-.24-.17h-.07c-.18,0-.41.08-.68.24-.8.48-1.68,1.21-2.64,2.19-.96.98-1.8,2.01-2.53,3.08-.57.89-.85,1.43-.85,1.61,0,.07.02.1.07.1.16,0,.59-.33,1.3-.99Z"/>
        <path class="cls-1" d="m860.46,599.04c-.39-.16-.72-.34-1.01-.53-.28-.19-.59-.46-.9-.81-1.07-1.05-1.61-2.37-1.61-3.97,0-1.14.26-2.41.79-3.8.91-2.42,2.16-4.64,3.74-6.65,1.58-2.02,2.92-3.08,4.02-3.2,1.03,0,1.88.88,2.57,2.63.23.68.35,1.31.36,1.88.01.57.02.92.02,1.06,0,.8-.11,1.49-.34,2.09-.34.75-.83,1.45-1.45,2.1-.63.65-1.29,1.15-2,1.49-.27.14-.47.22-.6.24-.13.02-.24.03-.33.03-.16,0-.34-.01-.55-.03-.11-.02-.23-.03-.34-.03-.32,0-.55.08-.68.24-.2.18-.43.66-.68,1.44-.25.71-.38,1.22-.38,1.54,0,.09.01.17.03.24.07.18.24.27.51.27.14,0,.3-.02.48-.07,1.78-.32,4.76-2.51,8.93-6.57,1.35-1.32,2.29-1.98,2.84-1.98.16,0,.28.07.37.2.12.11.17.31.17.58v.14c-.05.32-.15.67-.31,1.06-.48.89-1.49,2.19-3.03,3.88-1.54,1.7-3,3.12-4.36,4.26-1.91,1.53-3.55,2.32-4.89,2.39h-.82c-.25-.02-.43-.07-.55-.14Zm3.52-11.77l.2-.27c.39-.5.75-1.02,1.1-1.54.07-.11.1-.23.1-.34v-.1c-.02-.16-.07-.26-.14-.29-.07-.03-.13-.05-.17-.05-.11,0-.26.06-.44.17-.36.3-.72.65-1.06,1.06-.34.41-.64.83-.89,1.27-.34.61-.51,1.03-.51,1.23v.1c.05.07.1.1.17.1.11,0,.28-.08.51-.24.36-.25.74-.62,1.13-1.09Z"/>
        <path class="cls-1" d="m874.41,606.47c-.39-.18-.79-.5-1.21-.94-.42-.45-.77-.92-1.04-1.42-.32-.73-.48-1.48-.48-2.26,0-.39.03-.77.1-1.16.25-1.21.63-2.31,1.13-3.32.71-1.53,1.66-3.11,2.87-4.75.41-.59.76-1.11,1.06-1.56.29-.44.45-.7.48-.77.02-.05.04-.08.04-.1,0-.11-.08-.18-.24-.2-.2-.07-.62-.1-1.23-.1-.98,0-1.83-.31-2.55-.94-.72-.63-1.21-1.32-1.47-2.07-.26-.75-.39-1.41-.39-1.98,0-.34.03-.67.1-.99.11-.55.35-1.24.72-2.07.36-.83.75-1.61,1.16-2.34.41-.73.76-1.23,1.06-1.51.27-.2.54-.31.79-.31.62,0,1.22.56,1.81,1.68.27.48.41.95.41,1.4,0,.11-.01.22-.04.31-.09.55-.41,1.38-.96,2.5-.25.52-.46.99-.63,1.4-.17.41-.26.66-.26.75,0,.23.14.39.41.48.27.09.8.14,1.58.14.36,0,.72.01,1.06.03.34.02.58.05.72.07.64.21,1.19.64,1.64,1.3.45.66.68,1.35.68,2.05,0,.48-.09.99-.26,1.52-.17.54-.51,1.3-1.01,2.29-.5.99-.98,1.94-1.44,2.86-.89,1.6-1.43,2.63-1.62,3.1-.19.47-.29.78-.29.94,0,.14.06.21.17.21.09,0,.86-.7,2.31-2.09,1.45-1.39,3.02-2.94,4.72-4.65,1.7-1.71,3.11-3.15,4.23-4.31.73-.78,1.37-1.44,1.92-2,.55-.56.89-.87,1.03-.94.27-.11.49-.17.65-.17.3,0,.44.18.44.55,0,.11-.01.24-.03.38-.25.66-1.56,2.44-3.93,5.34-2.37,2.9-5.17,6.22-8.38,9.95-1.6,1.89-2.7,3.04-3.3,3.42-.6.39-1.11.58-1.52.58-.34,0-.67-.09-.99-.27Z"/>
        <path class="cls-1" d="m901.58,601.4c-.52-.18-1.04-.52-1.56-1.01-.51-.49-.92-1.04-1.21-1.66-.11-.23-.19-.43-.24-.62-.05-.18-.08-.4-.1-.67-.02-.26-.03-.63-.03-1.11s.02-.91.05-1.35c.03-.44.06-.77.09-.98.04-.23.07-.39.07-.48,0-.11-.02-.18-.05-.21-.03-.02-.1-.03-.19-.03-.07,0-.27.12-.6.36-.33.24-.72.55-1.18.94-1.41,1.23-2.53,2.09-3.33,2.56-.81.48-1.52.72-2.14.72-.89,0-1.68-.35-2.38-1.06-.7-.71-1.2-1.66-1.52-2.87-.09-.41-.14-.83-.14-1.27,0-1.53.49-3.28,1.47-5.27,1.26-2.55,2.9-4.64,4.93-6.26.59-.43,1.29-.85,2.09-1.25.8-.4,1.5-.68,2.12-.84.48-.11.97-.17,1.47-.17h.41c.64.05,1.17.17,1.61.38.89.48,1.69,1.25,2.39,2.32.39.62.67.92.86.92.07,0,.19-.05.36-.15.17-.1.35-.23.53-.39.23-.21.42-.35.58-.43.16-.08.33-.12.51-.12.91,0,1.68.65,2.29,1.95.18.39.28.75.29,1.09.01.34-.13.78-.41,1.32-.28.54-.75,1.31-1.39,2.31-1.09,1.76-2.03,3.4-2.8,4.93-.78,1.53-1.16,2.49-1.16,2.87.02.16.1.24.24.24.2,0,.52-.17.96-.51.2-.16.75-.68,1.64-1.56.89-.88,1.91-1.9,3.08-3.06,1.23-1.21,2.26-2.21,3.1-3.01.83-.8,1.33-1.23,1.49-1.3.18-.07.35-.1.51-.1.25,0,.46.08.62.24.18.18.27.43.27.75,0,.14-.01.27-.03.41-.16.39-.79,1.28-1.88,2.69-1.1,1.4-2.35,2.92-3.76,4.55-1.42,1.63-2.66,2.99-3.73,4.09-.96.98-1.69,1.59-2.19,1.83-.5.24-.94.36-1.3.36-.23,0-.46-.03-.68-.1Zm-8.55-9.44c.18-.11.55-.4,1.1-.86.55-.46,1.15-.97,1.81-1.54,1.39-1.25,2.42-2.16,3.1-2.7.67-.55,1.31-1.04,1.9-1.47.71-.5,1.11-.83,1.21-.99.1-.16.15-.29.15-.38,0-.14-.08-.26-.24-.38-.13-.11-.32-.17-.55-.17-.27,0-.6.07-.99.21-.78.25-1.62.67-2.53,1.27-1.8,1.3-3.43,3-4.89,5.1-.73,1.1-1.1,1.8-1.1,2.12,0,.11.06.17.17.17.18,0,.47-.12.85-.37Z"/>
        <path class="cls-1" d="m913.24,602.39c-.52-.27-1.04-.66-1.56-1.16-.51-.5-.91-1.04-1.18-1.61-.34-.64-.56-1.27-.67-1.9-.1-.63-.15-1.3-.15-2,0-.27.01-.57.03-.89.05-1.07.15-2.04.31-2.89.16-.85.44-1.86.86-3.03,2.08-6.27,6.08-12.65,12.01-19.12,3.38-3.71,6.09-5.84,8.14-6.36.43-.11.79-.16,1.06-.15.27.01.61.08,1.03.19,1.07.36,1.85,1.13,2.33,2.29.16.41.24.85.24,1.33s-.09.99-.27,1.54c-.36,1.05-1.17,2.43-2.43,4.14-1.6,2.12-3.82,4.48-6.67,7.06-2.85,2.59-5.3,4.49-7.36,5.7-.32.18-.6.35-.86.51-.25.16-.42.29-.51.38-.18.23-.49.82-.92,1.76-.43.95-.86,1.93-1.27,2.96-.52,1.46-.91,2.75-1.15,3.88-.24,1.13-.36,1.97-.36,2.51,0,.23.01.42.04.58.07.23.21.34.44.34,1.19,0,4.63-2.79,10.33-8.38,1.32-1.28,2.32-2.18,2.98-2.7.66-.52,1.14-.79,1.44-.79.45,0,.68.19.68.58,0,.46-.35,1.22-1.06,2.29-.36.5-1.05,1.35-2.05,2.55-1.01,1.2-2.06,2.43-3.17,3.69-1.11,1.27-2,2.24-2.69,2.93-1.8,1.92-3.13,3.09-3.99,3.51-.86.42-1.57.63-2.14.63-.5,0-.99-.12-1.47-.38Zm10.67-24.94c1.37-1.14,2.91-2.58,4.62-4.33,1.71-1.75,2.93-3.12,3.66-4.12.36-.55.56-.88.6-1.01.03-.13.05-.21.05-.26,0-.14-.07-.23-.2-.27h-.1c-.5,0-1.46.68-2.87,2.05-1.51,1.48-3.17,3.4-5,5.75-1.1,1.41-1.64,2.26-1.64,2.53,0,.09.04.14.1.14h.1c.11-.07.34-.23.68-.48Z"/>
      </g>
    </g>
    <g>
      <path class="cls-1" d="m74.43,582.69h74.59c.67-.42,20,1.35,30.38,21.7h-6.75s-7.72-13.83-24.11-15.43h-73.95l-.16-6.27Z"/>
      <path class="cls-1" d="m95.81,578.99h52.41s21.22-.32,36.33,25.72h5.79s-6.75-27.33-42.12-31.83l-52.41-.32v6.43Z"/>
      <path class="cls-1" d="m119.6,569.66h32.47s27.33.64,43.08,34.73h5.79s-9.32-33.76-46.3-40.19l-35.05-.32v5.79Z"/>
      <path class="cls-1" d="m273.93,557.45c-49.5-28.18-68.35-99.33-66.56-97.1-13.85,68.25-53.95,90.96-60.12,93.89,50.59.42,64.3,50.15,64.3,50.15h-6.43s-17.04-48.23-68.81-44.37v-5.47s68.49-38.9,67.52-124.75h6.43c-.21-.19-4.55,72.18,71.06,127.65h-7.4Z"/>
      <path class="cls-1" d="m215.42,429.8h4.5s2.57,84.24,79.1,127.33h-8.04s-77.81-42.44-75.56-127.33Z"/>
      <path class="cls-1" d="m225.71,429.8h4.5s1.29,84.56,86.81,127.65h-9.32s-83.28-43.41-81.99-127.65Z"/>
      <path class="cls-1" d="m326.67,557.45h9.97s-82.63-26.37-96.14-127.65h-5.14s3.22,90.35,91.31,127.65Z"/>
    </g>
  </g>
</svg>