<?xml version="1.0" encoding="UTF-8"?>
<svg id="Camada_1" data-name="Camada 1" xmlns="http://www.w3.org/2000/svg" viewBox="0 0 1080 1080">
  <defs>
    <style>
      .cls-1 {
        fill: #0a00db;
      }

      .cls-2 {
        fill: none;
        opacity: 0;
      }
    </style>
  </defs>
  <g id="MALHA" class="cls-2">
    <path class="cls-1" d="m535,1625H-545c0-360,0-720,0-1080H535v1080Z"/>
  </g>
  <g>
    <g>
      <path class="cls-1" d="m169.56,574.42l-66.38-104.24v104.24h-30.15v-155.19h34.36l61.7,99.8v-99.8h30.38v155.19h-29.92Z"/>
      <path class="cls-1" d="m286.65,579.8c-24,0-42.42-7.01-55.27-21.03-12.85-14.02-19.28-34.2-19.28-60.53,0-13.09,1.64-24.85,4.91-35.29,3.27-10.44,8.1-19.28,14.49-26.53,6.39-7.25,14.18-12.77,23.37-16.59,9.19-3.82,19.79-5.73,31.79-5.73s22.4,1.91,31.67,5.73c9.27,3.82,17.02,9.39,23.26,16.71,6.23,7.33,10.98,16.24,14.26,26.76,3.27,10.52,4.91,22.4,4.91,35.64,0,26.8-6.35,46.98-19.05,60.53-12.7,13.56-31.05,20.33-55.04,20.33Zm0-27.81c5.76,0,11.22-1.05,16.36-3.16,5.14-2.1,9.62-5.29,13.44-9.58,3.82-4.28,6.81-9.78,9-16.48,2.18-6.7,3.27-14.64,3.27-23.84,0-18.38-3.59-32.33-10.75-41.84-7.17-9.5-17.61-14.26-31.32-14.26s-24.23,4.76-31.55,14.26c-7.33,9.51-10.99,23.45-10.99,41.84s3.7,31.83,11.1,40.32c7.4,8.49,17.88,12.74,31.44,12.74Z"/>
      <path class="cls-1" d="m410.75,574.42l-52.59-155.19h34.59l33.89,108.91,33.66-108.91h33.65l-52.59,155.19h-30.62Z"/>
      <path class="cls-1" d="m570.62,574.42l-9.81-32.02h-57.26l-10.98,32.02h-34.36l55.39-155.19h37.63l54.69,155.19h-35.29Zm-38.56-120.37h-.23l-19.87,61.7h39.5l-19.4-61.7Z"/>
      <path class="cls-1" d="m736.56,521.13c-1.72,8.88-4.44,16.91-8.18,24.07-3.74,7.17-8.45,13.32-14.14,18.46-5.69,5.14-12.27,9.12-19.75,11.92-7.48,2.8-15.74,4.21-24.78,4.21-10.13,0-19.59-1.72-28.4-5.14-8.8-3.43-16.4-8.57-22.79-15.43-6.39-6.85-11.42-15.31-15.08-25.36-3.66-10.05-5.49-21.77-5.49-35.17s1.67-24.89,5.03-35.41c3.35-10.52,8.14-19.4,14.37-26.64,6.23-7.25,13.83-12.81,22.79-16.71,8.96-3.89,18.97-5.84,30.03-5.84,9.66,0,18.42,1.44,26.29,4.32,7.87,2.88,14.64,6.86,20.33,11.92,5.69,5.07,10.2,11.03,13.56,17.88,3.35,6.86,5.41,14.18,6.19,21.97h-32.49c-2.18-8.88-6.39-15.78-12.62-20.68-6.23-4.91-13.24-7.36-21.03-7.36-13.56,0-23.53,4.87-29.92,14.61-6.39,9.74-9.58,23.1-9.58,40.08s3.15,30.73,9.47,40.32c6.31,9.58,15.78,14.37,28.4,14.37,9.66,0,17.41-2.61,23.25-7.83,5.84-5.22,9.85-12.74,12.04-22.55h32.49Z"/>
      <path class="cls-1" d="m843.37,574.42l-9.81-32.02h-57.26l-10.99,32.02h-34.36l55.39-155.19h37.63l54.69,155.19h-35.29Zm-38.56-120.37h-.23l-19.87,61.7h39.5l-19.4-61.7Z"/>
      <path class="cls-1" d="m888.71,574.42v-155.19h68.48c7.63,0,14.49,1.29,20.57,3.86,6.08,2.57,11.29,6.16,15.66,10.75,4.36,4.6,7.71,9.93,10.05,16.01,2.34,6.08,3.51,12.62,3.51,19.63s-1.17,13.52-3.51,19.52c-2.34,6-5.69,11.14-10.05,15.43-4.36,4.29-9.58,7.64-15.66,10.05-6.08,2.42-12.94,3.62-20.57,3.62h-35.99v56.33h-32.49Zm63.34-82.74c9.35,0,16.09-2.14,20.22-6.43,4.13-4.28,6.19-9.85,6.19-16.71s-2.06-11.92-6.19-16.13c-4.13-4.21-10.87-6.31-20.22-6.31h-30.85v45.58h30.85Z"/>
    </g>
    <g>
      <path class="cls-1" d="m181.45,663.66c-3.19-.67-5.85-2.5-7.98-5.5-1.85-2.58-2.77-5.64-2.77-9.18,0-2.13.33-4.43,1-6.88,1.5-5.45,4.03-11.11,7.6-16.97,3.47-5.51,7.38-10.5,11.71-14.96,4.33-4.46,8.64-8.03,12.93-10.71,4.29-2.68,8.07-4.08,11.35-4.21h.33c.89,0,1.64.11,2.25.33.7.26,1.37.67,2.01,1.24,1.34,1.18,2.06,2.68,2.15,4.5v.53c0,.32-.02.61-.05.86-.03.35-.13.73-.29,1.15-.48,1.15-1.2,2.37-2.17,3.66-.97,1.29-1.99,2.41-3.06,3.35-1.07.94-1.9,1.41-2.51,1.41-.26,0-.53-.16-.84-.48-.3-.32-.45-.61-.45-.86,0-.22.64-.99,1.91-2.3,1.05-1.02,1.86-1.95,2.41-2.8.56-.84,1-1.77,1.31-2.8.22-.57.34-1.05.34-1.43,0-.64-.34-.96-1-.96-.35,0-.78.08-1.29.24-5.16,1.53-11.28,5.66-18.36,12.38-6.31,6.12-11.46,12.85-15.44,20.17-3.19,5.96-5.15,11.51-5.88,16.64-.06.7-.1,1.48-.1,2.34v.91c.06,1.18.17,2.04.33,2.58.22.83.7,1.43,1.43,1.79.73.37,1.78.55,3.16.55h.1c3,0,6.5-1.31,10.52-3.92,3.47-2.2,7.16-5.43,11.04-9.7.48-.54.96-1.07,1.43-1.58.8-.89,1.37-1.53,1.72-1.91.67-.73,1.3-1.29,1.89-1.67.59-.38,1.06-.57,1.41-.57h.14c.19.03.32.1.38.21.06.11.1.33.1.65,0,1.12-.8,2.85-2.39,5.21-1.24,1.85-2.43,3.44-3.56,4.78-1.13,1.34-2.64,2.93-4.52,4.78-1.94,1.98-3.58,3.48-4.9,4.52-1.32,1.04-2.73,1.94-4.23,2.7-2.68,1.37-5.18,2.05-7.51,2.05-.57,0-1.13-.05-1.67-.14Z"/>
      <path class="cls-1" d="m224.15,653.62c-1.21-.67-2.01-1.72-2.39-3.15-.38-1.43-.53-2.85-.45-4.23.08-1.39.18-2.35.31-2.89-.06.03-.94.89-2.63,2.58-1.69,1.69-4.13,3.65-7.31,5.88-.96.41-1.79.62-2.49.62-.92,0-1.63-.33-2.1-1-.86-1.18-1.29-2.76-1.29-4.73v-.38c.06-2.1.46-4.02,1.19-5.74.54-1.34,1.37-2.89,2.49-4.66,1.12-1.77,2.36-3.47,3.73-5.09.83-.99,1.5-1.7,2.01-2.15.51-.45.94-.72,1.29-.81h.19c.54,0,1.07.35,1.58,1.05.54.83.89,1.81,1.05,2.96.03.16.05.33.05.53,0,.54-.14,1.1-.43,1.67-.41.76-1.26,1.96-2.53,3.59-1.12,1.4-2.21,2.88-3.27,4.45-1.07,1.56-1.93,2.89-2.58,3.97-.65,1.08-.98,1.74-.98,1.96l.05.1h.14c.16,0,.46-.06.91-.19.57-.19,1.2-.48,1.86-.86.35-.19.82-.5,1.41-.93.59-.43,1.19-.88,1.79-1.36.96-.8,2.15-1.88,3.59-3.25,1.43-1.37,2.8-2.73,4.11-4.07,1.31-1.34,2.25-2.37,2.82-3.11,2.9-3.86,5.07-6.17,6.5-6.93.22-.1.37-.16.45-.19.08-.03.14-.05.17-.05.06,0,.14.02.24.05.13.03.3.11.53.24.8.51,1.36,1.28,1.7,2.32.33,1.03.5,1.92.5,2.65,0,.48-.06.96-.19,1.43-.16.86-1.62,2.94-4.4,6.22-2.07,2.36-3.68,4.46-4.83,6.31-.45.73-.74,1.23-.88,1.51-.14.27-.22.45-.22.55,0,.06.02.11.05.14.1.1.29.16.57.19.19.03.4.05.62.05.41,0,.86-.06,1.34-.19.76-.16,1.5-.41,2.2-.76,1.05-.54,2.68-1.57,4.9-3.08,2.21-1.51,4.1-2.89,5.66-4.14,1.56-1.24,2.79-2.28,3.68-3.11.54-.54.94-.81,1.2-.81s.73.29,1.43.86c.03.06.05.14.05.24,0,.19-.05.4-.14.62-.16.32-.53.73-1.1,1.24-.57.51-1.4,1.21-2.49,2.1-1.75,1.43-3.74,2.98-5.95,4.64-2.22,1.66-4.24,3.13-6.07,4.42-1.83,1.29-3.08,2.1-3.75,2.41-.96.41-1.8.62-2.53.62-.51,0-.96-.1-1.34-.29Z"/>
      <path class="cls-1" d="m244.03,654.15c-.7-.35-1.37-.86-2.01-1.53-.64-.67-1.15-1.39-1.53-2.15-.22-.41-.37-.82-.45-1.22-.08-.4-.14-.98-.17-1.75v-.72c0-.45.02-.81.05-1.1.03-.41.16-.92.38-1.53.96-2.93,3.14-6.66,6.55-11.19,1.02-1.37,1.83-2.36,2.44-2.96.6-.61,1.11-.94,1.53-1h.24c1.43,0,2.68,1.04,3.73,3.11.32.57.48.98.48,1.22v.41c0,.45-.21,1.02-.62,1.72-.48.8-1.24,2.01-2.3,3.63-2.93,4.4-4.4,6.84-4.4,7.31,0,.13.08.19.24.19h.19c.32-.06.7-.24,1.15-.53.54-.35,1.36-.95,2.46-1.79,1.1-.84,2.24-1.87,3.42-3.08.06-.1.16-.19.29-.29.45-.51,1.06-1.14,1.84-1.89.78-.75,1.47-1.29,2.06-1.63.59-.33,1.04-.5,1.36-.5.29,0,.54.1.76.29.16.22.24.49.24.81,0,.26-.06.54-.19.86-.26.67-.63,1.35-1.12,2.03-.49.69-.96,1.28-1.41,1.79-.19.25-.35.46-.48.62-2.23,2.9-4.38,5.4-6.45,7.5-1.91,1.94-3.29,3.08-4.14,3.42-.85.33-1.52.5-2.03.5-.7,0-1.4-.19-2.1-.57Zm16.49-32.6c-.57-.38-.86-1.34-.86-2.87,0-.83.1-1.55.29-2.15.19-.6.56-1.29,1.1-2.05.54-.86.96-1.36,1.27-1.51.3-.14.55-.21.74-.21.32,0,.67.11,1.05.33.67.35,1.23.88,1.67,1.6.45.72.67,1.44.67,2.18v.24c0,.25-.03.48-.1.67-.1.26-.29.57-.57.96-1.56,2.01-2.98,3.01-4.25,3.01-.35,0-.69-.06-1-.19Z"/>
      <path class="cls-1" d="m273.34,656.63c-.99-.26-1.88-.73-2.68-1.43-.8-.7-1.37-1.53-1.72-2.48-.26-.7-.38-1.4-.38-2.08v-1.27c0-1.08.1-2.23.29-3.44.16-.73.24-1.27.24-1.63,0-.32-.06-.48-.19-.48h-.1c-.38.16-1.43,1.32-3.16,3.49-1.21,1.53-2.17,2.68-2.89,3.44-.72.76-1.33,1.27-1.84,1.53-.51.26-1.05.38-1.62.38-.89,0-1.82-.38-2.77-1.15-.96-.76-1.64-1.66-2.06-2.68-.29-.83-.43-1.7-.43-2.63s.13-1.83.38-2.82c.67-2.23,1.86-4.64,3.56-7.22,1.7-2.58,3.5-4.7,5.38-6.36,2.39-2.1,4.59-3.15,6.6-3.15,1.31,0,2.53.46,3.68,1.39.48.38.81.59,1,.62l.24.05c.29,0,.57-.18.86-.53.35-.41.81-1.13,1.39-2.15,2.07-3.44,4.01-6.37,5.81-8.77,1.8-2.41,3.1-3.8,3.9-4.18.22-.1.45-.15.67-.15.19,0,.37.03.53.1.38.16.84.51,1.39,1.05.64.64,1.01,1.15,1.12,1.55.11.4.17.71.17.93,0,.38-.08.78-.24,1.19-.1.35-.43,1.01-1,1.98-.57.97-1.24,2.05-2.01,3.23-1.5,2.33-2.7,4.27-3.61,5.83-.91,1.56-1.87,3.35-2.89,5.36-2.93,5.74-4.92,10.49-5.98,14.25-.19.7-.29,1.24-.29,1.62,0,.35.1.53.29.53.29,0,.75-.34,1.39-1,1.24-1.27,3.82-4.37,7.74-9.27.8-.99,1.41-1.7,1.84-2.13.43-.43.71-.68.84-.74.45-.29.83-.43,1.15-.43.29,0,.53.11.72.33.22.26.33.57.33.96,0,.48-.18,1.05-.53,1.72-.26.51-.85,1.49-1.79,2.94-.94,1.45-1.94,2.96-2.99,4.52-1.05,1.56-1.9,2.77-2.53,3.63-2.77,3.79-5.1,5.69-6.98,5.69-.29,0-.56-.05-.81-.14Zm-8.7-14.96c.51-.51,1.19-1.21,2.06-2.1.86-.89,1.74-1.82,2.63-2.77.89-.96,1.65-1.78,2.27-2.46.62-.69.93-1.06.93-1.12,0-.16-.11-.24-.33-.24h-.1c-.26,0-.57.11-.96.33-1.12.67-2.34,1.69-3.68,3.06-1.34,1.37-2.52,2.8-3.54,4.3-.8,1.24-1.2,1.99-1.2,2.25,0,.1.03.14.1.14.22,0,.83-.46,1.82-1.39Z"/>
      <path class="cls-1" d="m301.35,657.59c-.73-.26-1.46-.72-2.18-1.41-.72-.68-1.28-1.46-1.7-2.32-.16-.32-.27-.6-.34-.86-.06-.26-.11-.56-.14-.93-.03-.37-.05-.88-.05-1.55s.02-1.27.07-1.89c.05-.62.09-1.08.12-1.36.06-.32.1-.54.1-.67,0-.16-.02-.26-.07-.29-.05-.03-.14-.05-.26-.05-.1,0-.38.17-.84.5-.46.34-1.01.78-1.65,1.32-1.98,1.72-3.53,2.91-4.66,3.58-1.13.67-2.13,1-2.99,1-1.24,0-2.35-.49-3.32-1.48-.97-.99-1.68-2.33-2.13-4.02-.13-.57-.19-1.16-.19-1.77,0-2.13.69-4.59,2.06-7.36,1.75-3.57,4.05-6.48,6.88-8.75.83-.6,1.8-1.19,2.92-1.74,1.11-.56,2.1-.95,2.96-1.17.67-.16,1.35-.24,2.06-.24h.57c.89.06,1.64.24,2.25.53,1.24.67,2.36,1.75,3.35,3.25.54.86.94,1.29,1.2,1.29.1,0,.26-.07.5-.21.24-.14.49-.33.74-.55.32-.29.59-.49.81-.6.22-.11.46-.17.72-.17,1.27,0,2.34.91,3.2,2.72.25.54.39,1.05.41,1.53.02.48-.18,1.09-.57,1.84-.4.75-1.04,1.83-1.94,3.23-1.53,2.46-2.84,4.75-3.92,6.88-1.08,2.14-1.62,3.47-1.62,4.02.03.22.14.33.33.33.29,0,.73-.24,1.34-.72.29-.22,1.05-.95,2.29-2.17,1.24-1.23,2.68-2.65,4.3-4.28,1.72-1.69,3.16-3.09,4.33-4.21,1.16-1.11,1.86-1.72,2.08-1.82.25-.1.49-.14.72-.14.35,0,.64.11.86.33.25.25.38.61.38,1.05,0,.19-.02.38-.05.57-.22.54-1.1,1.8-2.63,3.75-1.53,1.96-3.28,4.08-5.26,6.36-1.98,2.28-3.71,4.18-5.21,5.71-1.34,1.37-2.36,2.22-3.06,2.56-.7.34-1.31.5-1.82.5-.32,0-.64-.05-.96-.14Zm-11.95-13.19c.25-.16.76-.56,1.53-1.2.77-.64,1.61-1.35,2.53-2.15,1.94-1.75,3.39-3.01,4.33-3.78.94-.76,1.82-1.45,2.65-2.05.99-.7,1.55-1.16,1.7-1.39.14-.22.21-.4.21-.53,0-.19-.11-.37-.33-.53-.19-.16-.45-.24-.76-.24-.38,0-.85.1-1.39.29-1.08.35-2.26.94-3.54,1.77-2.52,1.82-4.8,4.19-6.84,7.12-1.02,1.53-1.53,2.52-1.53,2.97,0,.16.08.24.24.24.25,0,.65-.17,1.2-.52Z"/>
      <path class="cls-1" d="m315.79,653.34c-.19-.1-.41-.23-.67-.41-.26-.18-.49-.38-.72-.6-1.15-1.05-1.72-2.49-1.72-4.3,0-1.37.32-2.93.96-4.69.73-2.13,1.92-4.75,3.56-7.84,1.64-3.09,3.23-5.72,4.76-7.89.86-1.25,1.49-1.91,1.89-2.01.4-.09.66-.14.79-.14.57,0,1.21.37,1.91,1.1.6.61,1.06,1.21,1.36,1.82.3.61.45,1.12.45,1.53,0,.1-.02.19-.05.29-.03.19-.22.64-.57,1.34-.35.7-.77,1.5-1.24,2.39-.51.89-.92,1.63-1.22,2.2-.3.57-.53,1.01-.67,1.32-.14.3-.21.49-.21.57v.17c0,.06.01.11.05.14.03.03.06.05.1.05.06,0,.14-.05.24-.14.16-.09.41-.32.76-.67.35-.35.85-.87,1.51-1.58.65-.7,1.49-1.61,2.51-2.73.86-.92,1.76-1.88,2.7-2.87.94-.99,1.71-1.77,2.32-2.34.57-.57,1.03-1.01,1.36-1.31.33-.3.59-.5.76-.6.18-.1.36-.14.55-.14.89,0,1.64.46,2.25,1.39.6.83.91,1.77.91,2.82v.29c-.1,1.15-.59,2.83-1.48,5.07-.45,1.18-.92,2.44-1.43,3.78-.26.64-.46,1.18-.62,1.62-.64,1.56-.96,2.63-.96,3.2,0,.32.11.48.34.48h.1c.7-.16,2.55-1.77,5.55-4.83,1.02-.99,1.92-1.7,2.7-2.15.78-.45,1.35-.67,1.7-.67.22,0,.4.08.53.24.06.1.1.21.1.33,0,.54-.43,1.52-1.29,2.92-.64,1.05-1.38,2.11-2.22,3.18-.84,1.07-1.59,1.99-2.25,2.77-.65.78-1.03,1.24-1.12,1.36-.96.99-1.74,1.65-2.34,1.99-.61.33-1.26.5-1.96.5-1.31,0-2.49-.59-3.54-1.77-1.37-1.4-2.06-3.12-2.06-5.16,0-.92.14-1.93.43-3.01.13-.54.24-1.04.33-1.48.1-.45.14-.72.14-.81,0-.22-.06-.33-.19-.33-.19,0-.48.19-.86.57-.57.61-1.61,1.9-3.11,3.9-1.5,1.99-3.01,4.07-4.54,6.24-1.05,1.5-1.89,2.63-2.51,3.39-.62.77-1.12,1.27-1.48,1.51-.37.24-.74.36-1.12.36-.22,0-.47-.03-.74-.1-.27-.06-.5-.14-.69-.24Z"/>
      <path class="cls-1" d="m358.58,656.63c-.99-.26-1.88-.73-2.68-1.43-.8-.7-1.37-1.53-1.72-2.48-.26-.7-.38-1.4-.38-2.08v-1.27c0-1.08.1-2.23.29-3.44.16-.73.24-1.27.24-1.63,0-.32-.06-.48-.19-.48h-.1c-.38.16-1.43,1.32-3.16,3.49-1.21,1.53-2.17,2.68-2.89,3.44-.72.76-1.33,1.27-1.84,1.53-.51.26-1.05.38-1.63.38-.89,0-1.82-.38-2.77-1.15-.96-.76-1.64-1.66-2.06-2.68-.29-.83-.43-1.7-.43-2.63s.13-1.83.38-2.82c.67-2.23,1.86-4.64,3.56-7.22,1.7-2.58,3.5-4.7,5.38-6.36,2.39-2.1,4.59-3.15,6.6-3.15,1.31,0,2.53.46,3.68,1.39.48.38.81.59,1,.62l.24.05c.29,0,.57-.18.86-.53.35-.41.81-1.13,1.39-2.15,2.07-3.44,4.01-6.37,5.81-8.77,1.8-2.41,3.1-3.8,3.9-4.18.22-.1.45-.15.67-.15.19,0,.37.03.53.1.38.16.84.51,1.39,1.05.64.64,1.01,1.15,1.12,1.55.11.4.17.71.17.93,0,.38-.08.78-.24,1.19-.1.35-.43,1.01-1,1.98-.57.97-1.24,2.05-2.01,3.23-1.5,2.33-2.7,4.27-3.61,5.83-.91,1.56-1.87,3.35-2.89,5.36-2.93,5.74-4.92,10.49-5.98,14.25-.19.7-.29,1.24-.29,1.62,0,.35.1.53.29.53.29,0,.75-.34,1.39-1,1.24-1.27,3.82-4.37,7.74-9.27.8-.99,1.41-1.7,1.84-2.13.43-.43.71-.68.84-.74.45-.29.83-.43,1.15-.43.29,0,.53.11.72.33.22.26.33.57.33.96,0,.48-.17,1.05-.53,1.72-.26.51-.85,1.49-1.79,2.94-.94,1.45-1.94,2.96-2.99,4.52-1.05,1.56-1.9,2.77-2.53,3.63-2.77,3.79-5.1,5.69-6.98,5.69-.29,0-.56-.05-.81-.14Zm-8.7-14.96c.51-.51,1.19-1.21,2.06-2.1.86-.89,1.74-1.82,2.63-2.77.89-.96,1.65-1.78,2.27-2.46.62-.69.93-1.06.93-1.12,0-.16-.11-.24-.34-.24h-.1c-.26,0-.57.11-.96.33-1.12.67-2.34,1.69-3.68,3.06-1.34,1.37-2.52,2.8-3.54,4.3-.8,1.24-1.2,1.99-1.2,2.25,0,.1.03.14.1.14.22,0,.83-.46,1.82-1.39Z"/>
      <path class="cls-1" d="m370.96,656.87c-1.47-.73-2.71-2.09-3.73-4.07-.25-.48-.44-.87-.55-1.17-.11-.3-.18-.64-.22-1-.03-.37-.06-.9-.1-1.6v-.86c0-.51.02-.94.05-1.29.03-.51.16-1.11.38-1.82.54-1.81,1.41-3.77,2.61-5.85,1.2-2.09,2.56-3.97,4.09-5.67.76-.86,1.55-1.64,2.34-2.34.8-.7,1.43-1.18,1.91-1.43.45-.19.88-.29,1.29-.29,1.08,0,2.06.65,2.92,1.96.54.92.96,1.61,1.27,2.05.3.45.57.76.79.96.22.19.51.37.86.53,1.05.54,2.19.92,3.42,1.15,1.23.22,2.18.33,2.84.33,1.24,0,2.58-.19,4.02-.57.8-.22,1.51-.33,2.15-.33.32,0,.62.03.91.09.76.13,1.15.43,1.15.91v.09c-.06.51-.89,1.18-2.49,2.01-1.94.99-3.49,1.55-4.64,1.7-1.15.15-2.23.22-3.25.22h-1c-.67-.03-1.42-.05-2.25-.05-.38,0-.61.03-.67.09-.03.06-.09.31-.17.74-.08.43-.15.95-.21,1.55-.26,3.89-1.96,7.39-5.12,10.52-2.49,2.58-4.72,3.87-6.69,3.87-.67,0-1.31-.14-1.91-.43Zm3.44-6.55c.73-.51,1.56-1.23,2.49-2.15.92-.92,1.64-1.72,2.15-2.39,1.47-2.17,2.2-4.35,2.2-6.55,0-.48-.02-.8-.07-.96-.05-.16-.15-.29-.31-.38-.1-.03-.17-.05-.24-.05h-.1c-.13.03-.29.14-.48.31-.19.18-.48.45-.86.84-1.34,1.4-2.61,3.01-3.82,4.83-1.21,1.82-2.07,3.3-2.58,4.45-.51,1.15-.76,1.95-.76,2.39,0,.26.08.43.24.53h.19c.45,0,1.1-.29,1.96-.86Z"/>
      <path class="cls-1" d="m433.97,656.63c-.99-.26-1.88-.73-2.68-1.43-.8-.7-1.37-1.53-1.72-2.48-.25-.7-.38-1.4-.38-2.08v-1.27c0-1.08.1-2.23.29-3.44.16-.73.24-1.27.24-1.63,0-.32-.06-.48-.19-.48h-.1c-.38.16-1.43,1.32-3.16,3.49-1.21,1.53-2.17,2.68-2.89,3.44-.72.76-1.33,1.27-1.84,1.53-.51.26-1.05.38-1.62.38-.89,0-1.82-.38-2.77-1.15-.96-.76-1.64-1.66-2.06-2.68-.29-.83-.43-1.7-.43-2.63s.13-1.83.38-2.82c.67-2.23,1.86-4.64,3.56-7.22,1.7-2.58,3.5-4.7,5.38-6.36,2.39-2.1,4.59-3.15,6.6-3.15,1.31,0,2.53.46,3.68,1.39.48.38.81.59,1,.62l.24.05c.29,0,.57-.18.86-.53.35-.41.81-1.13,1.39-2.15,2.07-3.44,4.01-6.37,5.81-8.77,1.8-2.41,3.1-3.8,3.9-4.18.22-.1.45-.15.67-.15.19,0,.37.03.53.1.38.16.84.51,1.39,1.05.64.64,1.01,1.15,1.12,1.55.11.4.17.71.17.93,0,.38-.08.78-.24,1.19-.1.35-.43,1.01-1,1.98-.57.97-1.24,2.05-2.01,3.23-1.5,2.33-2.7,4.27-3.61,5.83-.91,1.56-1.87,3.35-2.89,5.36-2.93,5.74-4.92,10.49-5.98,14.25-.19.7-.29,1.24-.29,1.62,0,.35.1.53.29.53.29,0,.75-.34,1.39-1,1.24-1.27,3.82-4.37,7.74-9.27.8-.99,1.41-1.7,1.84-2.13.43-.43.71-.68.84-.74.45-.29.83-.43,1.15-.43.29,0,.53.11.72.33.22.26.33.57.33.96,0,.48-.18,1.05-.53,1.72-.26.51-.85,1.49-1.79,2.94-.94,1.45-1.94,2.96-2.99,4.52-1.05,1.56-1.9,2.77-2.53,3.63-2.77,3.79-5.1,5.69-6.98,5.69-.29,0-.56-.05-.81-.14Zm-8.7-14.96c.51-.51,1.2-1.21,2.06-2.1.86-.89,1.74-1.82,2.63-2.77.89-.96,1.65-1.78,2.27-2.46.62-.69.93-1.06.93-1.12,0-.16-.11-.24-.33-.24h-.1c-.26,0-.57.11-.96.33-1.12.67-2.34,1.69-3.68,3.06-1.34,1.37-2.52,2.8-3.54,4.3-.8,1.24-1.2,1.99-1.2,2.25,0,.1.03.14.1.14.22,0,.83-.46,1.82-1.39Z"/>
      <path class="cls-1" d="m446.35,656.87c-1.47-.73-2.71-2.09-3.73-4.07-.25-.48-.44-.87-.55-1.17-.11-.3-.18-.64-.22-1-.03-.37-.06-.9-.1-1.6v-.86c0-.51.02-.94.05-1.29.03-.51.16-1.11.38-1.82.54-1.81,1.41-3.77,2.61-5.85,1.2-2.09,2.56-3.97,4.09-5.67.76-.86,1.55-1.64,2.34-2.34.8-.7,1.43-1.18,1.91-1.43.45-.19.88-.29,1.29-.29,1.08,0,2.06.65,2.92,1.96.54.92.96,1.61,1.27,2.05.3.45.57.76.79.96.22.19.51.37.86.53,1.05.54,2.19.92,3.42,1.15,1.23.22,2.18.33,2.84.33,1.24,0,2.58-.19,4.02-.57.8-.22,1.51-.33,2.15-.33.32,0,.62.03.91.09.76.13,1.15.43,1.15.91v.09c-.06.51-.89,1.18-2.49,2.01-1.94.99-3.49,1.55-4.64,1.7-1.15.15-2.23.22-3.25.22h-1c-.67-.03-1.42-.05-2.25-.05-.38,0-.61.03-.67.09-.03.06-.09.31-.17.74-.08.43-.15.95-.21,1.55-.26,3.89-1.96,7.39-5.12,10.52-2.49,2.58-4.72,3.87-6.69,3.87-.67,0-1.31-.14-1.91-.43Zm3.44-6.55c.73-.51,1.56-1.23,2.49-2.15.92-.92,1.64-1.72,2.15-2.39,1.47-2.17,2.2-4.35,2.2-6.55,0-.48-.02-.8-.07-.96-.05-.16-.15-.29-.31-.38-.1-.03-.18-.05-.24-.05h-.1c-.13.03-.29.14-.48.31-.19.18-.48.45-.86.84-1.34,1.4-2.61,3.01-3.82,4.83-1.21,1.82-2.07,3.3-2.58,4.45-.51,1.15-.76,1.95-.76,2.39,0,.26.08.43.24.53h.19c.45,0,1.1-.29,1.96-.86Z"/>
      <path class="cls-1" d="m498.65,664.43c-.76-.19-1.45-.45-2.06-.79-.61-.34-1.24-.81-1.91-1.41-.38-.35-.8-.7-1.24-1.05-.45-.35-.83-.64-1.15-.86-1.31-1.02-1.96-2.2-1.96-3.54s.75-3.52,2.25-6.74c.8-1.72,2.19-4.59,4.18-8.6,1.99-4.02,3.96-7.97,5.9-11.86,1.94-3.89,3.25-6.49,3.92-7.79,1.94-3.63,3.75-6.93,5.43-9.9,1.67-2.96,2.68-4.65,3.04-5.07.38-.32.77-.48,1.15-.48.8,0,1.59.69,2.39,2.06.29.51.44.92.45,1.24.02.32.02.53.02.62,0,.48-.13,1.1-.38,1.87-.35.92-.96,2.25-1.82,3.99-.86,1.74-2.06,4.07-3.59,7-2.29,4.4-4.15,8.01-5.57,10.83-1.42,2.82-2.13,4.32-2.13,4.52,0,.22.13.33.38.33.1,0,.19-.02.29-.05.41-.13,1.21-.46,2.39-1,4.56-2.2,8.41-3.49,11.57-3.87h.67c.96,0,1.43.18,1.43.53,0,.16-.13.38-.38.67-.32.29-1.12.75-2.39,1.39-1.28.64-2.66,1.28-4.16,1.91-2.45,1.05-4.86,2.3-7.22,3.75-2.36,1.45-4.25,2.85-5.69,4.18-.48.41-.86.81-1.15,1.17-.29.37-.62.87-1,1.51-.38.64-.92,1.62-1.62,2.96-.06.16-.14.32-.24.48-.61,1.15-1.11,2.09-1.51,2.82-.4.73-.7,1.31-.91,1.74-.21.43-.36.76-.45.98s-.14.38-.14.48.01.19.05.29v.05c.25.7.84,1.08,1.77,1.15.92.07,1.51.1,1.77.1,1.47,0,3.17-.24,5.12-.72,3.92-1.05,7.73-2.8,11.43-5.26,1.34-.86,2.53-1.73,3.56-2.6,1.04-.88,2.22-1.98,3.56-3.32,5.42-5.54,9.67-12.09,12.76-19.65,2.07-5.03,3.11-9.83,3.11-14.39,0-5.9-1.61-9.9-4.83-12-2.81-1.91-6.02-2.87-9.66-2.87-4.21,0-8.96,1.26-14.25,3.78-6.92,3.41-12.35,7.44-16.3,12.09-.38.48-.73.9-1.05,1.27-.32.37-.53.58-.62.64-.22.16-.43.24-.62.24-.22,0-.45-.1-.67-.29-.35-.32-.53-.78-.53-1.39v-.29c.09-1.08,1.64-3.15,4.64-6.22,6.28-6.63,13.21-11.07,20.79-13.34,1.66-.54,3.04-.9,4.14-1.08,1.1-.17,2.51-.26,4.23-.26,1.85,0,3.32.11,4.42.33,1.1.22,2.32.67,3.66,1.34,4.37,2.23,7.28,5.44,8.75,9.63,1.47,4.19,2.2,8.09,2.2,11.69,0,2.48-.26,5.08-.76,7.79-.7,3.79-2.17,7.9-4.4,12.33-4.43,8.92-10.33,15.87-17.69,20.84-2.17,1.4-4.53,2.66-7.08,3.78-2.55,1.11-4.86,1.86-6.93,2.25-1.05.19-2.02.29-2.92.29h-1.63c-1.24,0-2.18-.08-2.82-.24Z"/>
      <path class="cls-1" d="m544.16,654.15c-.7-.35-1.37-.86-2.01-1.53-.64-.67-1.15-1.39-1.53-2.15-.22-.41-.37-.82-.45-1.22-.08-.4-.14-.98-.17-1.75v-.72c0-.45.02-.81.05-1.1.03-.41.16-.92.38-1.53.96-2.93,3.14-6.66,6.55-11.19,1.02-1.37,1.83-2.36,2.44-2.96.61-.61,1.12-.94,1.53-1h.24c1.44,0,2.68,1.04,3.73,3.11.32.57.48.98.48,1.22v.41c0,.45-.21,1.02-.62,1.72-.48.8-1.24,2.01-2.29,3.63-2.93,4.4-4.4,6.84-4.4,7.31,0,.13.08.19.24.19h.19c.32-.06.7-.24,1.15-.53.54-.35,1.36-.95,2.46-1.79,1.1-.84,2.24-1.87,3.42-3.08.06-.1.16-.19.29-.29.45-.51,1.06-1.14,1.84-1.89.78-.75,1.46-1.29,2.05-1.63.59-.33,1.05-.5,1.36-.5.29,0,.54.1.77.29.16.22.24.49.24.81,0,.26-.06.54-.19.86-.25.67-.63,1.35-1.12,2.03-.5.69-.96,1.28-1.41,1.79-.19.25-.35.46-.48.62-2.23,2.9-4.38,5.4-6.46,7.5-1.91,1.94-3.29,3.08-4.13,3.42-.85.33-1.52.5-2.03.5-.7,0-1.4-.19-2.1-.57Zm16.49-32.6c-.57-.38-.86-1.34-.86-2.87,0-.83.1-1.55.29-2.15.19-.6.56-1.29,1.1-2.05.54-.86.96-1.36,1.27-1.51.3-.14.55-.21.74-.21.32,0,.67.11,1.05.33.67.35,1.23.88,1.67,1.6.45.72.67,1.44.67,2.18v.24c0,.25-.03.48-.1.67-.09.26-.29.57-.57.96-1.56,2.01-2.98,3.01-4.25,3.01-.35,0-.69-.06-1-.19Z"/>
      <path class="cls-1" d="m552.72,665.72c-1.5-.45-2.72-1.58-3.68-3.39-.29-.64-.46-1.22-.53-1.75-.06-.53-.1-.92-.1-1.17,0-.48.06-.91.19-1.29,1.18-3.15,5.04-7.01,11.57-11.57.67-.48,1.14-.85,1.41-1.12.27-.27.41-.53.41-.79,0-.1-.1-.29-.29-.57-.19-.29-.41-.62-.67-1-1.63-2.07-2.44-4.3-2.44-6.69,0-.32.02-.62.05-.91,0-.7.05-1.25.14-1.65.1-.4.3-.88.62-1.46.92-1.75,2.55-3.59,4.88-5.52,2.33-1.93,4.48-3.24,6.45-3.95.54-.16,1.05-.24,1.53-.24,1.75,0,2.82,1.28,3.2,3.82.03.13.05.26.05.38,0,.51-.16.99-.48,1.43-.38.54-1.11,1.17-2.2,1.87-3.44,2.39-6.01,4.61-7.7,6.64-.48.57-.72,1.07-.72,1.48v.19c.1.45.56,1.05,1.39,1.82.58.57,1,.94,1.29,1.1.29.16.56.24.81.24.19,0,.4-.03.62-.09.48-.16,1.2-.48,2.15-.96,2.74-1.34,4.84-2.28,6.31-2.82,1.47-.54,2.68-.81,3.63-.81.86,0,1.29.21,1.29.62,0,.13-.03.25-.1.38-.19.35-.72.84-1.58,1.46-.86.62-1.86,1.25-3.01,1.89-1.79.99-3.18,1.76-4.19,2.32-1,.56-1.71.98-2.13,1.27-.41.29-.65.49-.72.62-.03.1-.05.24-.05.43v.29c.03.29.13.75.29,1.39.19.64.3,1.15.34,1.55.03.4.05.77.05,1.12s-.02.76-.05,1.24c-.03,1.21-.15,2.22-.36,3.01-.21.8-.58,1.64-1.12,2.53-.45.73-1.17,1.6-2.18,2.58-1,.99-1.97,1.83-2.89,2.53-2.04,1.4-3.94,2.37-5.69,2.92-1.75.54-3.17.81-4.26.81-.57,0-1.1-.06-1.58-.19Zm4.3-8.27c.95-.48,1.84-1.03,2.65-1.65.81-.62,1.73-1.44,2.75-2.46,1.94-1.85,2.96-3.17,3.06-3.97.03-.16.05-.27.05-.34,0-.1-.02-.16-.05-.19-.06-.06-.16-.1-.29-.1s-.26.02-.39.05c-.19.06-.74.42-1.65,1.08-.91.65-1.88,1.41-2.92,2.27-1.04.86-1.89,1.6-2.56,2.2-1.91,1.82-2.87,3-2.87,3.54,0,.23.11.34.34.34.35,0,.97-.25,1.86-.76Z"/>
      <path class="cls-1" d="m579.63,660.99c-2.14-.89-3.73-2.47-4.78-4.73-.22-.45-.38-.88-.45-1.29-.08-.41-.12-1.05-.12-1.91v-.91c0-1.05.08-1.98.24-2.77,1.37-6.09,4.75-13.35,10.13-21.8.41-.64.75-1.2,1-1.67.26-.48.38-.78.38-.91v-.05c0-.22-.25-.35-.77-.38h-.19c-.32,0-.83.06-1.53.19-.83.13-1.72.3-2.68.52-.95.23-1.78.45-2.49.67-.89.29-1.58.43-2.06.43-.16,0-.3-.01-.43-.05-.41-.13-.62-.53-.62-1.2v-.14c.03-.83.37-1.67,1-2.53.64-.86,1.4-1.53,2.29-2.01.99-.48,2.52-.96,4.59-1.44,2.07-.48,3.97-.81,5.69-1,.89-.06,1.58-.17,2.08-.31.5-.14,1-.43,1.51-.86.51-.43,1.18-1.11,2.01-2.03,4.14-4.3,7.92-7.49,11.33-9.56,1.91-1.08,3.52-1.63,4.83-1.63,1.21,0,2.17.45,2.87,1.34.95,1.15,1.43,2.39,1.43,3.73s-.51,2.84-1.53,4.4l-.15.19c-.45.73-.79,1.31-1.03,1.72-.24.41-.39.7-.45.86-.06.16-.1.29-.1.38v.05c0,.09.05.17.14.24.1.13.35.22.77.29.41.06,1.08.13,2.01.19.54.03,1.16.06,1.86.1,1.25.1,2.41.18,3.49.24,5.32.35,8.24,1.47,8.75,3.35.03.16.05.32.05.48,0,.19-.03.4-.1.62-.13.35-.32.59-.57.72-.22.06-.53.1-.91.1h-.38c-.54-.03-1.16-.13-1.87-.29-.7-.13-1.94-.24-3.73-.33-1.79-.1-3.35-.15-4.69-.17-1.34-.02-2.31-.02-2.92-.02-1.21,0-2.28.02-3.2.05-.96.06-1.78.13-2.49.21-.7.08-1.13.15-1.29.21-.13.1-.57.5-1.34,1.2-.76.7-1.65,1.55-2.68,2.53-5.04,4.94-8.92,8.27-11.66,9.99-.29.16-.64.33-1.05.5-.41.17-.81.33-1.2.45-.48.16-.87.34-1.17.55-.3.21-.6.56-.91,1.05-.3.49-.71,1.27-1.22,2.32-1.4,2.84-2.57,5.5-3.49,7.98-.92,2.49-1.42,4.27-1.48,5.35v.77c0,.16.04.26.12.31.08.05.2.09.36.12h.05c.57,0,1.59-.48,3.06-1.43,1.56-.99,3.3-2.3,5.21-3.92,1.27-1.05,2.93-2.52,4.95-4.42,2.02-1.9,3.77-3.61,5.24-5.14,2.2-2.36,3.87-3.54,5.02-3.54.6,0,.94.19,1,.57.06.38.1.64.1.76,0,.57-.21,1.28-.62,2.1-.32.64-1.08,1.71-2.27,3.23-1.19,1.51-2.53,3.12-4.01,4.81-1.48,1.69-2.81,3.14-3.99,4.35-5.74,5.8-10.04,8.7-12.91,8.7-.29,0-.61-.05-.98-.14-.37-.1-.72-.21-1.07-.33Zm16.49-35.57c1.21-1.05,1.82-1.78,1.82-2.2,0-.09-.03-.17-.1-.24-.1-.06-.21-.1-.34-.1-.57,0-1.4.78-2.49,2.34-.44.67-.67,1.1-.67,1.29,0,.06.03.09.1.09.19,0,.75-.4,1.67-1.2Zm8.56-8.99c.22-.16.57-.5,1.05-1.03.48-.53.96-1.08,1.44-1.67.48-.59.81-1.06,1-1.41.06-.13.1-.25.12-.36.02-.11,0-.18-.02-.21-.03-.03-.07-.05-.1-.05-.38,0-1.42.73-3.11,2.2-1.56,1.34-2.35,2.19-2.35,2.54,0,.06.02.11.05.14.1.13.3.19.62.19h.19c.38-.03.75-.15,1.1-.33Z"/>
      <path class="cls-1" d="m605.78,664.67c-.54-.26-1.11-.69-1.7-1.31-.59-.62-1.07-1.28-1.46-1.98-.45-1.02-.67-2.07-.67-3.16,0-.54.05-1.08.15-1.63.35-1.69.88-3.23,1.58-4.64.99-2.13,2.33-4.35,4.02-6.64.57-.83,1.07-1.55,1.48-2.17.41-.62.64-.98.67-1.08.03-.06.05-.11.05-.14,0-.16-.11-.25-.33-.29-.29-.09-.86-.14-1.72-.14-1.37,0-2.56-.44-3.56-1.31-1-.88-1.69-1.84-2.05-2.89-.37-1.05-.55-1.98-.55-2.77,0-.48.05-.94.14-1.39.16-.76.49-1.73,1-2.89.51-1.16,1.05-2.25,1.63-3.27.57-1.02,1.07-1.72,1.48-2.1.38-.29.75-.43,1.1-.43.86,0,1.7.78,2.53,2.34.38.67.57,1.32.57,1.96,0,.16-.01.3-.05.43-.13.76-.57,1.93-1.34,3.49-.35.73-.65,1.39-.88,1.96-.24.57-.36.92-.36,1.05,0,.32.19.55.57.67.38.13,1.11.19,2.2.19.51,0,1,.02,1.48.05.48.03.81.06,1,.09.89.29,1.66.89,2.29,1.82.64.92.96,1.88.96,2.87,0,.67-.12,1.38-.36,2.13-.24.75-.71,1.82-1.41,3.2-.7,1.39-1.37,2.72-2.01,3.99-1.24,2.23-2,3.68-2.27,4.33-.27.65-.4,1.09-.4,1.31,0,.19.08.29.24.29.13,0,1.2-.97,3.23-2.91,2.02-1.95,4.22-4.11,6.59-6.5,2.37-2.39,4.34-4.4,5.9-6.02,1.02-1.08,1.91-2.01,2.68-2.8.76-.78,1.24-1.22,1.44-1.31.38-.16.68-.24.91-.24.41,0,.62.25.62.76,0,.16-.02.33-.05.53-.35.92-2.18,3.41-5.5,7.46-3.32,4.05-7.22,8.69-11.71,13.91-2.23,2.65-3.77,4.24-4.61,4.78-.85.54-1.55.81-2.13.81-.48,0-.94-.12-1.39-.38Z"/>
      <path class="cls-1" d="m627.68,654.15c-.7-.35-1.37-.86-2.01-1.53-.64-.67-1.15-1.39-1.53-2.15-.22-.41-.37-.82-.45-1.22-.08-.4-.14-.98-.17-1.75v-.72c0-.45.02-.81.05-1.1.03-.41.16-.92.38-1.53.96-2.93,3.14-6.66,6.55-11.19,1.02-1.37,1.83-2.36,2.44-2.96.6-.61,1.12-.94,1.53-1h.24c1.43,0,2.68,1.04,3.73,3.11.32.57.48.98.48,1.22v.41c0,.45-.21,1.02-.62,1.72-.48.8-1.24,2.01-2.3,3.63-2.93,4.4-4.4,6.84-4.4,7.31,0,.13.08.19.24.19h.19c.32-.06.7-.24,1.15-.53.54-.35,1.36-.95,2.46-1.79,1.1-.84,2.24-1.87,3.42-3.08.06-.1.16-.19.29-.29.45-.51,1.06-1.14,1.84-1.89.78-.75,1.46-1.29,2.05-1.63.59-.33,1.05-.5,1.36-.5.29,0,.54.1.76.29.16.22.24.49.24.81,0,.26-.06.54-.19.86-.26.67-.63,1.35-1.12,2.03-.5.69-.97,1.28-1.41,1.79-.19.25-.35.46-.48.62-2.23,2.9-4.38,5.4-6.45,7.5-1.91,1.94-3.29,3.08-4.14,3.42-.85.33-1.52.5-2.03.5-.7,0-1.4-.19-2.1-.57Zm16.49-32.6c-.57-.38-.86-1.34-.86-2.87,0-.83.1-1.55.29-2.15.19-.6.56-1.29,1.1-2.05.54-.86.96-1.36,1.26-1.51.3-.14.55-.21.74-.21.32,0,.67.11,1.05.33.67.35,1.22.88,1.67,1.6.45.72.67,1.44.67,2.18v.24c0,.25-.03.48-.1.67-.1.26-.29.57-.57.96-1.56,2.01-2.98,3.01-4.25,3.01-.35,0-.69-.06-1-.19Z"/>
      <path class="cls-1" d="m643.02,660.99c-2.14-.89-3.73-2.47-4.78-4.73-.22-.45-.37-.88-.45-1.29-.08-.41-.12-1.05-.12-1.91v-.91c0-1.05.08-1.98.24-2.77,1.37-6.09,4.75-13.35,10.14-21.8.41-.64.75-1.2,1-1.67.26-.48.38-.78.38-.91v-.05c0-.22-.25-.35-.76-.38h-.19c-.32,0-.83.06-1.53.19-.83.13-1.72.3-2.68.52-.95.23-1.78.45-2.48.67-.89.29-1.58.43-2.06.43-.16,0-.3-.01-.43-.05-.41-.13-.62-.53-.62-1.2v-.14c.03-.83.37-1.67,1-2.53.64-.86,1.4-1.53,2.3-2.01.99-.48,2.52-.96,4.59-1.44,2.07-.48,3.97-.81,5.69-1,.89-.06,1.59-.17,2.08-.31.49-.14.99-.43,1.5-.86.51-.43,1.18-1.11,2.01-2.03,4.14-4.3,7.92-7.49,11.33-9.56,1.91-1.08,3.52-1.63,4.83-1.63,1.21,0,2.17.45,2.87,1.34.95,1.15,1.43,2.39,1.43,3.73s-.51,2.84-1.53,4.4l-.14.19c-.45.73-.79,1.31-1.03,1.72-.24.41-.39.7-.45.86-.06.16-.1.29-.1.38v.05c0,.09.05.17.14.24.1.13.35.22.76.29.41.06,1.09.13,2.01.19.54.03,1.16.06,1.86.1,1.24.1,2.4.18,3.49.24,5.32.35,8.24,1.47,8.75,3.35.03.16.05.32.05.48,0,.19-.03.4-.09.62-.13.35-.32.59-.58.72-.22.06-.52.1-.91.1h-.38c-.54-.03-1.16-.13-1.86-.29-.7-.13-1.95-.24-3.73-.33-1.79-.1-3.35-.15-4.68-.17-1.34-.02-2.31-.02-2.92-.02-1.21,0-2.28.02-3.2.05-.96.06-1.78.13-2.49.21-.7.08-1.13.15-1.29.21-.13.1-.57.5-1.34,1.2-.77.7-1.66,1.55-2.68,2.53-5.04,4.94-8.92,8.27-11.66,9.99-.29.16-.64.33-1.05.5-.41.17-.81.33-1.2.45-.48.16-.87.34-1.17.55-.3.21-.6.56-.91,1.05-.3.49-.71,1.27-1.22,2.32-1.4,2.84-2.56,5.5-3.49,7.98-.92,2.49-1.42,4.27-1.48,5.35v.77c0,.16.04.26.12.31.08.05.2.09.36.12h.05c.57,0,1.59-.48,3.06-1.43,1.56-.99,3.3-2.3,5.21-3.92,1.28-1.05,2.93-2.52,4.95-4.42,2.02-1.9,3.77-3.61,5.24-5.14,2.2-2.36,3.87-3.54,5.02-3.54.6,0,.94.19,1,.57.06.38.09.64.09.76,0,.57-.21,1.28-.62,2.1-.32.64-1.08,1.71-2.27,3.23-1.2,1.51-2.53,3.12-4.02,4.81-1.48,1.69-2.81,3.14-3.99,4.35-5.74,5.8-10.04,8.7-12.91,8.7-.29,0-.61-.05-.98-.14-.37-.1-.73-.21-1.08-.33Zm16.49-35.57c1.21-1.05,1.82-1.78,1.82-2.2,0-.09-.03-.17-.1-.24-.1-.06-.21-.1-.34-.1-.57,0-1.4.78-2.48,2.34-.45.67-.67,1.1-.67,1.29,0,.06.03.09.1.09.19,0,.75-.4,1.67-1.2Zm8.56-8.99c.22-.16.58-.5,1.05-1.03.48-.53.96-1.08,1.44-1.67.48-.59.81-1.06,1-1.41.06-.13.1-.25.12-.36.02-.11,0-.18-.02-.21-.03-.03-.06-.05-.09-.05-.38,0-1.42.73-3.11,2.2-1.56,1.34-2.34,2.19-2.34,2.54,0,.06.02.11.05.14.1.13.3.19.62.19h.19c.38-.03.75-.15,1.1-.33Z"/>
      <path class="cls-1" d="m666.11,656.87c-1.46-.73-2.71-2.09-3.73-4.07-.25-.48-.44-.87-.55-1.17-.11-.3-.18-.64-.21-1-.03-.37-.06-.9-.1-1.6v-.86c0-.51.02-.94.05-1.29.03-.51.16-1.11.39-1.82.54-1.81,1.41-3.77,2.6-5.85,1.2-2.09,2.56-3.97,4.09-5.67.76-.86,1.55-1.64,2.34-2.34.8-.7,1.43-1.18,1.91-1.43.45-.19.88-.29,1.29-.29,1.09,0,2.06.65,2.92,1.96.54.92.96,1.61,1.27,2.05.3.45.56.76.79.96.22.19.51.37.86.53,1.05.54,2.19.92,3.42,1.15,1.23.22,2.18.33,2.85.33,1.24,0,2.58-.19,4.02-.57.8-.22,1.51-.33,2.15-.33.32,0,.62.03.91.09.77.13,1.15.43,1.15.91v.09c-.06.51-.89,1.18-2.48,2.01-1.95.99-3.49,1.55-4.64,1.7-1.15.15-2.23.22-3.25.22h-1c-.67-.03-1.42-.05-2.25-.05-.38,0-.6.03-.67.09-.03.06-.09.31-.17.74-.08.43-.15.95-.21,1.55-.25,3.89-1.96,7.39-5.11,10.52-2.49,2.58-4.72,3.87-6.69,3.87-.67,0-1.31-.14-1.91-.43Zm3.44-6.55c.73-.51,1.56-1.23,2.49-2.15.92-.92,1.64-1.72,2.15-2.39,1.47-2.17,2.2-4.35,2.2-6.55,0-.48-.03-.8-.07-.96-.05-.16-.15-.29-.31-.38-.1-.03-.18-.05-.24-.05h-.1c-.13.03-.29.14-.48.31-.19.18-.48.45-.86.84-1.34,1.4-2.62,3.01-3.83,4.83-1.21,1.82-2.07,3.3-2.58,4.45-.51,1.15-.77,1.95-.77,2.39,0,.26.08.43.24.53h.19c.45,0,1.1-.29,1.96-.86Z"/>
      <path class="cls-1" d="m711.29,659.41c-.38-.32-.73-.76-1.03-1.32-.3-.55-.46-1.09-.46-1.6,0-1.82,2.6-8.14,7.79-18.98.41-.86.76-1.61,1.03-2.25.27-.64.4-1,.4-1.1,0-.29-.09-.44-.29-.45-.19-.02-.32-.02-.38-.02-.32,0-.85.06-1.58.19-.61.16-1.13.24-1.58.24-.76,0-1.24-.24-1.43-.72-.16-.32-.24-.68-.24-1.1,0-.32.05-.67.14-1.05.19-.93.53-1.66,1-2.2.22-.26.48-.46.76-.62.29-.16.72-.32,1.31-.48.59-.16,1.44-.37,2.56-.62.86-.19,1.61-.37,2.27-.55.65-.17,1.06-.31,1.22-.41.16-.06.3-.15.43-.26.13-.11.28-.31.45-.6.17-.29.43-.72.76-1.29.34-.57.77-1.35,1.31-2.34,2.74-4.94,5.39-9.31,7.94-13.1.64-.96,1.18-1.79,1.62-2.51.45-.72.67-1.11.67-1.17,0-.23-.09-.37-.26-.43-.17-.06-.39-.1-.64-.1-.16,0-.35.02-.57.05-.57.03-1.4.12-2.49.29-.92.13-1.96.29-3.1.5-1.15.21-2.15.39-3.01.55-1.05.19-1.76.31-2.13.36-.37.05-.61.07-.74.07-.29,0-.51-.05-.67-.14-.22-.1-.37-.3-.43-.62-.03-.12-.05-.25-.05-.38,0-.57.2-1.15.62-1.72.48-.76,1.15-1.34,2.01-1.72,1.08-.44,2.8-.88,5.16-1.29,2.36-.41,4.95-.75,7.79-1,2.3-.16,5.98-.24,11.04-.24,2.87,0,5.04.02,6.53.07,1.48.05,2.64.14,3.46.29.83.14,1.63.37,2.39.69,1.4.57,2.1,1.31,2.1,2.2,0,.19-.03.38-.1.57-.16.51-.39.8-.69.86-.3.06-.53.1-.69.1-.48,0-1.15-.11-2.01-.33-.38-.06-.84-.12-1.39-.17-.54-.05-1.35-.08-2.41-.1-1.07-.02-2.59-.02-4.57-.02-2.2,0-3.9,0-5.09.02-1.2.02-2.06.09-2.6.22-.55.13-.9.33-1.05.62-.16.29-.27.67-.34,1.15-.35,1.66-2.47,5.85-6.36,12.57-.86,1.5-1.6,2.8-2.22,3.9-.62,1.1-.96,1.73-1.03,1.89v.19c0,.19.06.37.19.53.06.09.16.15.29.17.13.02.27.02.43.02h.52c.41-.03,1.04-.1,1.87-.19,1.72-.19,3.46-.29,5.21-.29s3.09.06,4.02.19c2.17.35,3.25,1.18,3.25,2.49v.1c0,1.15-1.34,1.72-4.02,1.72-.89,0-2.33.13-4.3.38-1.98.25-3.95.55-5.9.88-1.96.33-3.42.65-4.37.93-.64.19-1.13.48-1.48.86-.35.35-3.92,7.46-10.71,21.32-.99,2.04-1.74,3.54-2.27,4.49-.53.96-.96,1.56-1.29,1.82-.33.25-.72.38-1.17.38-.51,0-.99-.13-1.44-.38Z"/>
      <path class="cls-1" d="m760.29,654.29c-.54-.22-1.01-.47-1.41-.74-.4-.27-.82-.65-1.27-1.13-1.5-1.46-2.25-3.31-2.25-5.54,0-1.59.37-3.36,1.1-5.31,1.28-3.38,3.02-6.48,5.24-9.3,2.21-2.82,4.09-4.31,5.62-4.47,1.43,0,2.63,1.23,3.59,3.68.32.96.49,1.83.5,2.63.01.8.02,1.29.02,1.48,0,1.11-.16,2.09-.48,2.91-.48,1.05-1.16,2.03-2.03,2.94-.88.91-1.81,1.6-2.8,2.08-.38.19-.66.3-.84.34-.18.03-.33.05-.45.05-.22,0-.48-.01-.76-.05-.16-.03-.32-.05-.48-.05-.45,0-.76.11-.95.33-.29.26-.61.92-.96,2.01-.35.99-.53,1.7-.53,2.15,0,.13.01.24.05.33.1.26.34.38.72.38.19,0,.41-.03.67-.1,2.49-.45,6.64-3.5,12.48-9.18,1.88-1.85,3.2-2.77,3.97-2.77.22,0,.4.09.53.29.16.16.24.43.24.81v.19c-.06.45-.21.94-.43,1.48-.67,1.24-2.08,3.05-4.23,5.42-2.15,2.37-4.18,4.36-6.09,5.95-2.68,2.13-4.96,3.25-6.84,3.35h-1.15c-.35-.03-.6-.1-.77-.19Zm4.93-16.45l.29-.38c.54-.7,1.05-1.42,1.53-2.15.1-.16.14-.32.14-.48v-.14c-.03-.22-.1-.36-.19-.41-.1-.05-.17-.07-.24-.07-.16,0-.36.08-.62.24-.51.41-1,.91-1.48,1.48-.48.57-.89,1.16-1.24,1.77-.48.86-.72,1.43-.72,1.72v.14c.06.1.15.14.24.14.16,0,.4-.11.72-.34.51-.35,1.04-.86,1.58-1.53Z"/>
      <path class="cls-1" d="m791.46,656.63c-.99-.26-1.88-.73-2.68-1.43-.8-.7-1.37-1.53-1.72-2.48-.25-.7-.38-1.4-.38-2.08v-1.27c0-1.08.1-2.23.29-3.44.16-.73.24-1.27.24-1.63,0-.32-.06-.48-.19-.48h-.1c-.38.16-1.43,1.32-3.16,3.49-1.21,1.53-2.17,2.68-2.89,3.44-.72.76-1.33,1.27-1.84,1.53-.51.26-1.05.38-1.63.38-.89,0-1.82-.38-2.77-1.15-.96-.76-1.64-1.66-2.06-2.68-.29-.83-.43-1.7-.43-2.63s.13-1.83.38-2.82c.67-2.23,1.86-4.64,3.56-7.22,1.7-2.58,3.5-4.7,5.38-6.36,2.39-2.1,4.59-3.15,6.6-3.15,1.31,0,2.53.46,3.68,1.39.48.38.81.59,1,.62l.24.05c.29,0,.57-.18.86-.53.35-.41.81-1.13,1.39-2.15,2.07-3.44,4.01-6.37,5.81-8.77,1.8-2.41,3.1-3.8,3.9-4.18.22-.1.45-.15.67-.15.19,0,.37.03.53.1.38.16.85.51,1.39,1.05.64.64,1.01,1.15,1.12,1.55.11.4.17.71.17.93,0,.38-.08.78-.24,1.19-.1.35-.43,1.01-1,1.98-.58.97-1.25,2.05-2.01,3.23-1.5,2.33-2.7,4.27-3.61,5.83-.91,1.56-1.87,3.35-2.89,5.36-2.93,5.74-4.92,10.49-5.98,14.25-.19.7-.29,1.24-.29,1.62,0,.35.09.53.29.53.29,0,.75-.34,1.39-1,1.24-1.27,3.82-4.37,7.74-9.27.8-.99,1.41-1.7,1.84-2.13.43-.43.71-.68.84-.74.45-.29.83-.43,1.15-.43.29,0,.53.11.72.33.22.26.34.57.34.96,0,.48-.18,1.05-.53,1.72-.26.51-.85,1.49-1.79,2.94-.94,1.45-1.94,2.96-2.99,4.52-1.05,1.56-1.9,2.77-2.53,3.63-2.77,3.79-5.1,5.69-6.98,5.69-.29,0-.56-.05-.81-.14Zm-8.7-14.96c.51-.51,1.2-1.21,2.05-2.1.86-.89,1.74-1.82,2.63-2.77.89-.96,1.65-1.78,2.27-2.46.62-.69.93-1.06.93-1.12,0-.16-.11-.24-.33-.24h-.1c-.25,0-.57.11-.95.33-1.11.67-2.34,1.69-3.68,3.06-1.34,1.37-2.52,2.8-3.54,4.3-.8,1.24-1.19,1.99-1.19,2.25,0,.1.03.14.1.14.22,0,.83-.46,1.82-1.39Z"/>
      <path class="cls-1" d="m804.18,654.29c-.54-.22-1.01-.47-1.41-.74-.4-.27-.82-.65-1.26-1.13-1.5-1.46-2.25-3.31-2.25-5.54,0-1.59.36-3.36,1.1-5.31,1.27-3.38,3.02-6.48,5.23-9.3,2.21-2.82,4.09-4.31,5.62-4.47,1.44,0,2.63,1.23,3.59,3.68.32.96.49,1.83.5,2.63.02.8.02,1.29.02,1.48,0,1.11-.16,2.09-.48,2.91-.48,1.05-1.15,2.03-2.03,2.94-.88.91-1.81,1.6-2.8,2.08-.38.19-.66.3-.84.34-.18.03-.33.05-.45.05-.22,0-.48-.01-.76-.05-.16-.03-.32-.05-.48-.05-.45,0-.76.11-.96.33-.29.26-.6.92-.95,2.01-.35.99-.53,1.7-.53,2.15,0,.13.02.24.05.33.1.26.34.38.72.38.19,0,.41-.03.67-.1,2.49-.45,6.64-3.5,12.48-9.18,1.88-1.85,3.2-2.77,3.97-2.77.22,0,.4.09.52.29.16.16.24.43.24.81v.19c-.06.45-.21.94-.43,1.48-.67,1.24-2.08,3.05-4.23,5.42-2.15,2.37-4.19,4.36-6.1,5.95-2.68,2.13-4.96,3.25-6.84,3.35h-1.15c-.35-.03-.61-.1-.76-.19Zm4.92-16.45l.29-.38c.54-.7,1.05-1.42,1.53-2.15.1-.16.14-.32.14-.48v-.14c-.03-.22-.1-.36-.19-.41-.1-.05-.18-.07-.24-.07-.16,0-.37.08-.62.24-.51.41-1,.91-1.48,1.48-.48.57-.9,1.16-1.25,1.77-.48.86-.71,1.43-.71,1.72v.14c.06.1.14.14.24.14.16,0,.4-.11.72-.34.51-.35,1.04-.86,1.58-1.53Z"/>
      <path class="cls-1" d="m823.68,664.67c-.54-.26-1.11-.69-1.7-1.31-.59-.62-1.08-1.28-1.46-1.98-.45-1.02-.67-2.07-.67-3.16,0-.54.05-1.08.14-1.63.35-1.69.88-3.23,1.58-4.64.99-2.13,2.33-4.35,4.01-6.64.57-.83,1.07-1.55,1.48-2.17.41-.62.64-.98.67-1.08.03-.06.05-.11.05-.14,0-.16-.11-.25-.34-.29-.29-.09-.86-.14-1.72-.14-1.37,0-2.56-.44-3.56-1.31-1-.88-1.69-1.84-2.05-2.89-.37-1.05-.55-1.98-.55-2.77,0-.48.05-.94.14-1.39.16-.76.49-1.73,1-2.89.51-1.16,1.05-2.25,1.63-3.27.57-1.02,1.07-1.72,1.48-2.1.38-.29.75-.43,1.1-.43.86,0,1.7.78,2.53,2.34.38.67.58,1.32.58,1.96,0,.16-.02.3-.05.43-.13.76-.57,1.93-1.34,3.49-.35.73-.65,1.39-.89,1.96-.24.57-.36.92-.36,1.05,0,.32.19.55.57.67.38.13,1.12.19,2.2.19.51,0,1,.02,1.48.05.48.03.81.06,1,.09.89.29,1.66.89,2.3,1.82.64.92.95,1.88.95,2.87,0,.67-.12,1.38-.36,2.13-.24.75-.71,1.82-1.41,3.2-.7,1.39-1.37,2.72-2.01,3.99-1.24,2.23-2,3.68-2.27,4.33-.27.65-.41,1.09-.41,1.31,0,.19.08.29.24.29.13,0,1.2-.97,3.23-2.91,2.02-1.95,4.22-4.11,6.6-6.5,2.37-2.39,4.34-4.4,5.9-6.02,1.02-1.08,1.91-2.01,2.68-2.8.76-.78,1.24-1.22,1.43-1.31.38-.16.69-.24.91-.24.41,0,.62.25.62.76,0,.16-.01.33-.05.53-.35.92-2.18,3.41-5.5,7.46-3.31,4.05-7.22,8.69-11.71,13.91-2.23,2.65-3.77,4.24-4.61,4.78-.85.54-1.55.81-2.13.81-.48,0-.94-.12-1.39-.38Z"/>
      <path class="cls-1" d="m861.64,657.59c-.73-.26-1.46-.72-2.18-1.41-.72-.68-1.28-1.46-1.7-2.32-.16-.32-.27-.6-.33-.86-.06-.26-.11-.56-.15-.93-.03-.37-.05-.88-.05-1.55s.03-1.27.07-1.89c.05-.62.09-1.08.12-1.36.06-.32.09-.54.09-.67,0-.16-.02-.26-.07-.29-.05-.03-.14-.05-.26-.05-.1,0-.37.17-.84.5-.46.34-1.01.78-1.65,1.32-1.98,1.72-3.53,2.91-4.66,3.58-1.13.67-2.13,1-2.99,1-1.24,0-2.35-.49-3.32-1.48-.97-.99-1.68-2.33-2.13-4.02-.13-.57-.19-1.16-.19-1.77,0-2.13.68-4.59,2.05-7.36,1.75-3.57,4.05-6.48,6.88-8.75.83-.6,1.8-1.19,2.92-1.74,1.11-.56,2.1-.95,2.96-1.17.67-.16,1.35-.24,2.06-.24h.57c.89.06,1.64.24,2.25.53,1.24.67,2.36,1.75,3.35,3.25.54.86.94,1.29,1.2,1.29.09,0,.26-.07.5-.21.24-.14.49-.33.74-.55.32-.29.59-.49.81-.6.22-.11.46-.17.72-.17,1.27,0,2.34.91,3.2,2.72.25.54.39,1.05.41,1.53.01.48-.18,1.09-.57,1.84-.4.75-1.05,1.83-1.94,3.23-1.53,2.46-2.83,4.75-3.92,6.88-1.08,2.14-1.63,3.47-1.63,4.02.03.22.15.33.34.33.29,0,.73-.24,1.34-.72.29-.22,1.05-.95,2.29-2.17,1.24-1.23,2.68-2.65,4.3-4.28,1.72-1.69,3.16-3.09,4.33-4.21,1.16-1.11,1.85-1.72,2.08-1.82.25-.1.49-.14.72-.14.35,0,.64.11.86.33.25.25.38.61.38,1.05,0,.19-.01.38-.05.57-.22.54-1.1,1.8-2.63,3.75-1.53,1.96-3.29,4.08-5.26,6.36-1.98,2.28-3.71,4.18-5.21,5.71-1.34,1.37-2.36,2.22-3.06,2.56-.7.34-1.31.5-1.82.5-.32,0-.64-.05-.95-.14Zm-11.95-13.19c.26-.16.77-.56,1.53-1.2.76-.64,1.61-1.35,2.53-2.15,1.94-1.75,3.39-3.01,4.33-3.78.94-.76,1.83-1.45,2.65-2.05.99-.7,1.55-1.16,1.7-1.39.14-.22.21-.4.21-.53,0-.19-.11-.37-.34-.53-.19-.16-.45-.24-.76-.24-.38,0-.84.1-1.39.29-1.08.35-2.26.94-3.54,1.77-2.52,1.82-4.8,4.19-6.84,7.12-1.02,1.53-1.53,2.52-1.53,2.97,0,.16.08.24.24.24.25,0,.65-.17,1.19-.52Z"/>
      <path class="cls-1" d="m877.94,658.98c-.73-.38-1.46-.92-2.18-1.62-.72-.7-1.27-1.45-1.65-2.25-.48-.89-.79-1.78-.93-2.65-.14-.88-.21-1.81-.21-2.8,0-.38.01-.8.05-1.24.07-1.5.21-2.85.43-4.04.22-1.19.62-2.6,1.2-4.23,2.9-8.76,8.49-17.67,16.78-26.72,4.72-5.19,8.51-8.16,11.38-8.89.6-.16,1.1-.23,1.48-.21.38.02.86.1,1.43.26,1.5.51,2.58,1.58,3.25,3.2.22.57.33,1.19.33,1.86s-.13,1.39-.38,2.15c-.51,1.46-1.64,3.39-3.4,5.78-2.23,2.97-5.34,6.26-9.32,9.87-3.98,3.62-7.41,6.27-10.28,7.96-.45.25-.85.49-1.2.72-.35.22-.59.4-.72.53-.25.32-.69,1.14-1.29,2.46-.61,1.32-1.2,2.7-1.77,4.14-.73,2.04-1.27,3.85-1.6,5.42-.34,1.58-.5,2.75-.5,3.51,0,.32.02.59.05.81.09.32.3.48.62.48,1.66,0,6.47-3.9,14.44-11.71,1.85-1.78,3.24-3.04,4.16-3.78.92-.73,1.6-1.1,2.01-1.1.64,0,.95.27.95.81,0,.64-.5,1.7-1.48,3.2-.51.7-1.47,1.89-2.87,3.56-1.4,1.67-2.88,3.39-4.42,5.16-1.55,1.77-2.8,3.13-3.75,4.09-2.52,2.68-4.37,4.31-5.57,4.9-1.2.59-2.19.88-2.99.88-.7,0-1.39-.17-2.05-.53Zm14.91-34.85c1.91-1.59,4.06-3.61,6.45-6.05,2.39-2.44,4.1-4.36,5.12-5.76.51-.76.79-1.23.84-1.41.05-.18.07-.29.07-.36,0-.19-.1-.32-.29-.38h-.15c-.7,0-2.04.96-4.01,2.87-2.1,2.07-4.43,4.75-6.98,8.03-1.53,1.98-2.3,3.15-2.3,3.54,0,.13.05.19.14.19h.14c.16-.09.48-.32.96-.67Z"/>
    </g>
  </g>
</svg>